<svg version="1.2" xmlns="http://www.w3.org/2000/svg" viewBox="0 0 300 300" width="300" height="300">
	<title>Novo Projeto</title>
	<style>
		.s0 { fill: #ffffff } 
	</style>
	<path id="Path 0" class="s0" d="m23.3 55h125.4c124 0 125.3 0 127.3 2 1.2 1.2 2 3.3 2 5.5 0 2.2-0.8 4.3-2 5.5-2 2-3.3 2-127.5 2-124.2 0-125.5 0-127.5-2-1.1-1.1-2.1-3.4-2.2-5.2-0.1-2.2 0.5-3.9 2.2-5.5zm0 86h125.3c124 0 125.4 0 127.3 2 1.3 1.3 2 3.3 2 5.5 0 2.2-0.7 4.3-2 5.5-1.9 2-3.3 2-127.5 2-124.1 0-125.5 0-127.5-2-1.1-1.1-2-3.4-2.2-5.2-0.1-2.2 0.6-3.9 2.2-5.5zm0 85h125.3c124 0 125.4 0.1 127.4 2 1.2 1.3 2 3.4 2 5.5 0 2.2-0.8 4.3-2 5.5-2 2-3.4 2-127.5 2-124.2 0-125.5 0-127.5-2-1.1-1.1-2.1-3.4-2.2-5.2-0.1-2.2 0.5-3.9 2.2-5.5z"/>
</svg>