<?xml version="1.0" encoding="UTF-8"?>
<!DOCTYPE svg PUBLIC "-//W3C//DTD SVG 1.1//EN" "http://www.w3.org/Graphics/SVG/1.1/DTD/svg11.dtd">
<!-- Creator: CorelDRAW 2018 (64 Bit) -->
<svg xmlns="http://www.w3.org/2000/svg" xml:space="preserve" width="100px" height="100px" version="1.1" style="shape-rendering:geometricPrecision; text-rendering:geometricPrecision; image-rendering:optimizeQuality; fill-rule:evenodd; clip-rule:evenodd"
viewBox="0 0 100 100"
 xmlns:xlink="http://www.w3.org/1999/xlink">
 <defs>
  <style type="text/css">
   <![CDATA[
    .fil0 {fill:white}
   ]]>
  </style>
 </defs>
 <g id="Camada_x0020_1">
  <metadata id="CorelCorpID_0Corel-Layer"/>
  <path class="fil0" d="M50 -0.001c-27.57,0 -50.001,22.429 -50.001,50.001 0,27.572 22.431,50.001 50.001,50.001 27.572,0 50.001,-22.429 50.001,-50.001 0,-27.572 -22.429,-50.001 -50.001,-50.001zm15.217 30.435l-7.152 0c-4.213,0 -5.891,0.989 -5.891,3.927l0 6.944 13.043 0 -2.173 10.869 -10.87 0 0 28.261 -13.044 0 0 -28.261 -6.522 0 0 -10.869 6.522 0 0 -6.031c0,-9.186 3.666,-15.709 14.307,-15.709 5.699,0 11.78,2.174 11.78,2.174l0 8.695z"/>
 </g>
</svg>
