<?xml version="1.0" encoding="UTF-8"?>
<!DOCTYPE svg PUBLIC "-//W3C//DTD SVG 1.1//EN" "http://www.w3.org/Graphics/SVG/1.1/DTD/svg11.dtd">
<!-- Creator: CorelDRAW 2018 (64 Bit) -->
<svg xmlns="http://www.w3.org/2000/svg" xml:space="preserve" width="1754px" height="1240px" version="1.1" style="shape-rendering:geometricPrecision; text-rendering:geometricPrecision; image-rendering:optimizeQuality; fill-rule:evenodd; clip-rule:evenodd"
viewBox="0 0 1754 1240.202"
 xmlns:xlink="http://www.w3.org/1999/xlink">
 <defs>
  <style type="text/css">
   <![CDATA[
    .str0 {stroke:white;stroke-width:1.181;stroke-miterlimit:22.9256}
    .fil1 {fill:#FAD0D1}
    .fil2 {fill:#FCDEDE}
    .fil3 {fill:#FCE0DF}
    .fil0 {fill:#FEEBE7}
   ]]>
  </style>
 </defs>
 <g id="Camada_x0020_1">
  <metadata id="CorelCorpID_0Corel-Layer"/>
  <rect class="fil0 str0" width="1754" height="1240.202"/>
  <path class="fil1" d="M614.196 0l1077.541 0 -1.25 23.029 0 73.753c0,0 8.749,402.515 -207.508,217.508 -216.258,-185.007 -262.51,-295.011 -511.269,-121.254 -248.76,173.756 -259.874,67.262 -308.762,-10 -48.887,-77.263 -56.252,-183.036 -56.252,-183.036l7.5 0z"/>
  <path class="fil2" d="M535.451 0c0,0 0.001,111.081 51.253,108.581 21.636,-1.055 25.91,-2.08 27.357,-2.808 17.023,-8.578 0,0 22.644,-10.942 40.346,-19.496 68.753,-62.503 116.255,-43.752 47.501,18.75 72.502,43.752 72.502,43.752 0,0 88.754,102.503 106.254,-15.001 2.771,-18.604 4.664,-33.319 5.889,-44.908 1.154,-10.926 1.947,-19.075 1.853,-25.089 -0.127,-8.173 -7.742,-9.833 -7.742,-9.833l-396.265 0z"/>
  <path class="fil3" d="M677.564 1240.202l985.974 0 21.876 0 -3.125 -214.257c0,0 -3.125,-326.574 -243.759,-76.565 -240.634,250.009 -253.131,103.006 -387.515,31.251 -193.044,-103.077 -395.775,58.11 -373.451,259.571z"/>
  <path class="fil1" d="M1127.581 1200.951l-7.813 39.251 543.77 0c0,0 13.738,-254.667 -109.379,-137.691 -123.118,116.975 -217.977,71.878 -284.385,20.313 -66.408,-51.565 -97.661,-29.001 -128.13,31.251 -17.97,66.502 -14.063,46.876 -14.063,46.876z"/>
 </g>
</svg>
