<?xml version="1.0" encoding="UTF-8"?>
<!DOCTYPE svg PUBLIC "-//W3C//DTD SVG 1.1//EN" "http://www.w3.org/Graphics/SVG/1.1/DTD/svg11.dtd">
<!-- Creator: CorelDRAW 2018 (64 Bit) -->
<svg xmlns="http://www.w3.org/2000/svg" xml:space="preserve" width="100px" height="100px" version="1.1" style="shape-rendering:geometricPrecision; text-rendering:geometricPrecision; image-rendering:optimizeQuality; fill-rule:evenodd; clip-rule:evenodd"
viewBox="0 0 100 100"
 xmlns:xlink="http://www.w3.org/1999/xlink">
 <defs>
  <style type="text/css">
   <![CDATA[
    .fil0 {fill:white}
   ]]>
  </style>
 </defs>
 <g id="Camada_x0020_1">
  <metadata id="CorelCorpID_0Corel-Layer"/>
  <g id="_2192043249568">
   <path class="fil0" d="M-0.001 50c0,-27.614 22.387,-50.001 50.001,-50.001 27.614,0 50.001,22.387 50.001,50.001 0,27.614 -22.387,50.001 -50.001,50.001 -27.614,0 -50.001,-22.387 -50.001,-50.001zm50.003 -26.667c-7.242,0 -8.151,0.032 -10.995,0.161 -2.84,0.13 -4.777,0.58 -6.473,1.239 -1.754,0.681 -3.241,1.593 -4.724,3.076 -1.482,1.481 -2.394,2.969 -3.077,4.722 -0.661,1.696 -1.111,3.635 -1.24,6.473 -0.126,2.845 -0.16,3.754 -0.16,10.996 0,7.243 0.032,8.149 0.161,10.993 0.131,2.84 0.58,4.777 1.239,6.473 0.682,1.754 1.593,3.241 3.076,4.724 1.481,1.482 2.969,2.396 4.722,3.077 1.696,0.66 3.635,1.11 6.473,1.24 2.845,0.129 3.753,0.16 10.995,0.16 7.243,0 8.149,-0.031 10.994,-0.16 2.838,-0.13 4.779,-0.58 6.476,-1.24 1.753,-0.681 3.238,-1.595 4.72,-3.077 1.483,-1.483 2.395,-2.97 3.078,-4.724 0.655,-1.696 1.105,-3.635 1.239,-6.472 0.127,-2.845 0.161,-3.751 0.161,-10.994 0,-7.242 -0.034,-8.151 -0.161,-10.996 -0.134,-2.839 -0.584,-4.777 -1.239,-6.472 -0.683,-1.754 -1.595,-3.242 -3.078,-4.723 -1.484,-1.484 -2.967,-2.395 -4.722,-3.076 -1.701,-0.659 -3.639,-1.109 -6.478,-1.239 -2.845,-0.129 -3.751,-0.161 -10.994,-0.161l0.007 0z"/>
   <path class="fil0" d="M47.61 28.138c0.71,0 1.502,0 2.392,0 7.121,0 7.964,0.026 10.776,0.154 2.6,0.119 4.012,0.554 4.951,0.918 1.245,0.484 2.132,1.061 3.065,1.994 0.933,0.935 1.511,1.823 1.996,3.068 0.364,0.938 0.8,2.35 0.918,4.95 0.128,2.811 0.155,3.655 0.155,10.773 0,7.116 -0.027,7.96 -0.155,10.771 -0.119,2.6 -0.554,4.012 -0.918,4.95 -0.484,1.245 -1.063,2.131 -1.996,3.064 -0.933,0.933 -1.82,1.511 -3.065,1.994 -0.939,0.367 -2.351,0.8 -4.951,0.92 -2.811,0.128 -3.655,0.155 -10.776,0.155 -7.12,0 -7.964,-0.027 -10.776,-0.155 -2.599,-0.12 -4.011,-0.555 -4.951,-0.92 -1.245,-0.483 -2.133,-1.061 -3.066,-1.994 -0.934,-0.934 -1.512,-1.821 -1.997,-3.066 -0.364,-0.938 -0.8,-2.349 -0.918,-4.949 -0.127,-2.812 -0.153,-3.656 -0.153,-10.777 0,-7.122 0.026,-7.962 0.153,-10.773 0.119,-2.6 0.554,-4.011 0.918,-4.952 0.484,-1.243 1.063,-2.133 1.997,-3.066 0.933,-0.933 1.821,-1.51 3.066,-1.996 0.94,-0.367 2.352,-0.799 4.951,-0.919 2.461,-0.111 3.414,-0.144 8.384,-0.15l0 0.006zm16.627 4.429c-1.767,0 -3.2,1.431 -3.2,3.198 0,1.767 1.433,3.2 3.2,3.2 1.767,0 3.2,-1.433 3.2,-3.2 0,-1.766 -1.433,-3.198 -3.2,-3.198zm-14.235 3.739c-7.563,0 -13.694,6.132 -13.694,13.694 0,7.563 6.131,13.692 13.694,13.692 7.564,0 13.692,-6.129 13.692,-13.692 0,-7.562 -6.128,-13.694 -13.692,-13.694z"/>
   <path class="fil0" d="M50.002 41.111c4.91,0 8.889,3.98 8.889,8.889 0,4.909 -3.979,8.889 -8.889,8.889 -4.909,0 -8.889,-3.98 -8.889,-8.889 0,-4.909 3.98,-8.889 8.889,-8.889z"/>
  </g>
 </g>
</svg>
