<?xml version="1.0" encoding="UTF-8"?>
<!DOCTYPE svg PUBLIC "-//W3C//DTD SVG 1.1//EN" "http://www.w3.org/Graphics/SVG/1.1/DTD/svg11.dtd">
<!-- Creator: CorelDRAW 2018 (64 Bit) -->
<svg xmlns="http://www.w3.org/2000/svg" xml:space="preserve" width="1156px" height="363px" version="1.1" style="shape-rendering:geometricPrecision; text-rendering:geometricPrecision; image-rendering:optimizeQuality; fill-rule:evenodd; clip-rule:evenodd"
viewBox="0 0 1156 362.817"
 xmlns:xlink="http://www.w3.org/1999/xlink">
 <defs>
  <style type="text/css">
   <![CDATA[
    .fil0 {fill:#FAD0D1}
    .fil1 {fill:#FCDEDE}
   ]]>
  </style>
 </defs>
 <g id="Camada_x0020_1">
  <metadata id="CorelCorpID_0Corel-Layer"/>
  <g id="_2190470517744">
   <path class="fil0" d="M78.724 -0.006l1077.278 0 -1.25 23.023 0 73.735c0,0 8.748,402.417 -207.457,217.455 -216.205,-184.962 -262.446,-294.939 -511.145,-121.225 -248.698,173.714 -259.81,67.246 -308.686,-9.998 -48.876,-77.244 -56.238,-182.99 -56.238,-182.99l7.498 0z"/>
   <path class="fil1" d="M-0.002 -0.006c0,0 0.001,111.053 51.24,108.554 21.631,-1.055 25.904,-2.079 27.35,-2.808 17.019,-8.575 0,0 22.639,-10.939 40.337,-19.491 68.737,-62.487 116.227,-43.741 47.49,18.746 72.484,43.741 72.484,43.741 0,0 88.732,102.479 106.228,-14.997 2.771,-18.6 4.664,-33.311 5.887,-44.897 1.154,-10.924 1.948,-19.071 1.854,-25.083 -0.128,-8.171 -7.741,-9.83 -7.741,-9.83l-396.168 0z"/>
  </g>
 </g>
</svg>
