<?xml version="1.0" encoding="UTF-8"?>
<!DOCTYPE svg PUBLIC "-//W3C//DTD SVG 1.1//EN" "http://www.w3.org/Graphics/SVG/1.1/DTD/svg11.dtd">
<!-- Creator: CorelDRAW 2018 (64 Bit) -->
<svg xmlns="http://www.w3.org/2000/svg" xml:space="preserve" width="100px" height="100px" version="1.1" style="shape-rendering:geometricPrecision; text-rendering:geometricPrecision; image-rendering:optimizeQuality; fill-rule:evenodd; clip-rule:evenodd"
viewBox="0 0 100 100"
 xmlns:xlink="http://www.w3.org/1999/xlink">
 <defs>
  <style type="text/css">
   <![CDATA[
    .fil0 {fill:white}
   ]]>
  </style>
 </defs>
 <g id="Camada_x0020_1">
  <metadata id="CorelCorpID_0Corel-Layer"/>
  <path class="fil0" d="M50 -0.001c-27.572,0 -50.001,22.429 -50.001,50.001 0,27.572 22.429,50.001 50.001,50.001 27.572,0 50.001,-22.429 50.001,-50.001 0,-27.572 -22.429,-50.001 -50.001,-50.001zm24.428 40.27c0.022,0.513 0.035,1.034 0.035,1.559 0.001,15.909 -12.115,34.259 -34.265,34.259 -6.8,0 -13.133,-1.993 -18.459,-5.41 0.941,0.113 1.895,0.167 2.871,0.167 5.644,0 10.837,-1.921 14.955,-5.152 -5.27,-0.095 -9.714,-3.585 -11.25,-8.364 0.737,0.141 1.492,0.218 2.269,0.218 1.098,0 2.164,-0.146 3.17,-0.424 -5.504,-1.111 -9.654,-5.972 -9.654,-11.809 0,-0.052 0,-0.102 0,-0.151 1.623,0.901 3.478,1.445 5.454,1.508 -3.235,-2.163 -5.356,-5.846 -5.356,-10.024 0,-2.207 0.592,-4.274 1.628,-6.056 5.942,7.284 14.815,12.078 24.822,12.582 -0.206,-0.882 -0.316,-1.8 -0.316,-2.743 0,-6.651 5.392,-12.042 12.044,-12.042 3.464,0 6.591,1.461 8.787,3.803 2.741,-0.539 5.322,-1.541 7.648,-2.919 -0.898,2.808 -2.808,5.17 -5.298,6.661 2.44,-0.296 4.756,-0.939 6.92,-1.898 -1.613,2.414 -3.655,4.538 -6.005,6.235z"/>
 </g>
</svg>
