<?xml version="1.0" standalone="no"?>
<!DOCTYPE svg PUBLIC "-//W3C//DTD SVG 20010904//EN"
 "http://www.w3.org/TR/2001/REC-SVG-20010904/DTD/svg10.dtd">
<svg version="1.0" xmlns="http://www.w3.org/2000/svg"
 width="1280.000000pt" height="1280.000000pt" viewBox="0 0 1280.000000 1280.000000"
 preserveAspectRatio="xMidYMid meet">
<metadata>
Created by potrace 1.15, written by Peter Selinger 2001-2017
</metadata>
<g transform="translate(0.000000,1280.000000) scale(0.100000,-0.100000)"
fill="#000000" stroke="none">
<path d="M6377 11773 c-4 -207 -7 -444 -8 -527 -1 -155 -6 -159 -29 -21 -31
177 -113 357 -209 458 -93 98 -268 170 -516 211 -102 17 -345 39 -352 32 -7
-7 163 -254 260 -379 184 -236 322 -365 460 -430 88 -42 212 -82 283 -92 49
-6 52 -8 74 -55 l23 -49 -8 -663 c-4 -365 -10 -776 -14 -915 l-6 -252 -66 50
-66 49 -6 64 c-13 136 -95 403 -172 555 -98 195 -253 356 -553 570 -63 45
-119 81 -124 81 -18 0 -1 -233 27 -369 45 -216 134 -463 205 -566 72 -105 179
-199 290 -255 63 -32 174 -68 230 -76 40 -5 61 -17 123 -69 41 -34 84 -69 96
-77 l20 -14 -8 -535 c-4 -294 -6 -537 -4 -541 2 -5 31 -8 64 -8 l59 0 0 103
c0 56 -7 531 -15 1056 -11 758 -11 957 -1 965 6 6 28 32 48 57 l36 45 89 -19
c65 -14 134 -19 263 -20 162 -2 179 0 233 21 194 79 390 288 530 567 41 82 77
162 77 171 0 8 -249 3 -340 -6 -326 -34 -541 -104 -654 -213 -46 -44 -70 -83
-156 -252 -56 -110 -110 -209 -121 -220 -19 -19 -19 -18 -19 85 -1 58 -3 245
-6 415 -3 171 -9 563 -13 873 -5 310 -11 565 -13 568 -3 2 -8 -165 -11 -373z"/>
<path d="M10110 11567 c65 -130 119 -283 147 -422 27 -138 25 -453 -5 -592
-99 -458 -386 -835 -787 -1035 -157 -79 -317 -123 -655 -179 -265 -44 -260
-44 -260 -26 0 43 22 84 53 99 52 25 223 158 320 248 242 227 349 442 441 888
29 138 32 172 13 172 -23 0 -179 -84 -274 -148 -124 -84 -249 -189 -363 -308
-137 -141 -189 -234 -225 -398 -20 -92 -17 -300 7 -376 13 -41 12 -51 -9 -124
-12 -44 -24 -80 -25 -81 -2 0 -50 -11 -108 -24 -445 -97 -757 -313 -1022 -706
-86 -128 -223 -398 -281 -555 -20 -52 -38 -102 -42 -111 -5 -14 8 -21 65 -38
40 -12 73 -21 74 -19 1 2 22 57 45 123 51 142 122 304 174 397 32 57 43 69 74
77 34 10 39 8 73 -23 96 -87 260 -177 377 -206 159 -41 445 -48 763 -19 150
13 190 20 190 31 0 20 -248 256 -350 332 -121 91 -258 161 -348 178 -150 28
-402 -46 -610 -179 -30 -19 -59 -32 -64 -31 -6 2 17 40 50 84 126 167 258 290
416 389 178 111 386 175 821 255 434 80 641 151 861 298 104 70 241 195 315
288 36 46 54 62 60 53 6 -11 21 -10 76 3 42 11 129 19 228 22 188 6 288 26
411 86 155 75 266 235 363 526 54 160 94 334 77 334 -9 0 -219 -96 -328 -151
-223 -112 -418 -239 -513 -334 -79 -78 -188 -264 -214 -362 -8 -27 -19 -44
-32 -48 -31 -10 -33 0 -6 42 14 22 45 80 70 129 180 358 210 777 85 1174 -30
97 -132 315 -168 360 -11 14 7 -28 40 -93z"/>
<path d="M2697 11627 c-59 -91 -137 -279 -171 -414 -37 -147 -46 -227 -46
-391 0 -294 75 -570 218 -805 38 -62 39 -68 20 -65 -24 3 -27 8 -62 104 -80
216 -231 373 -521 541 -137 80 -512 260 -521 251 -4 -5 63 -262 91 -343 42
-124 138 -314 192 -380 63 -77 134 -126 239 -164 112 -41 241 -61 389 -61 76
0 143 -6 180 -15 32 -9 64 -14 71 -11 6 2 42 -30 79 -72 130 -149 292 -276
462 -361 173 -86 321 -129 698 -202 344 -67 384 -76 510 -116 189 -61 353
-152 486 -270 122 -110 271 -285 251 -297 -4 -2 -32 11 -62 31 -172 111 -382
183 -535 184 -142 1 -245 -44 -437 -188 -95 -72 -338 -304 -338 -323 0 -14 26
-18 230 -36 238 -20 572 -15 690 11 131 29 275 101 387 194 62 51 68 53 101
45 30 -8 43 -21 78 -79 55 -89 140 -276 194 -430 24 -66 46 -123 49 -127 4 -4
36 0 71 10 54 15 64 21 62 37 -7 45 -119 309 -182 432 -121 234 -237 392 -411
557 -209 199 -413 305 -740 384 l-112 28 -22 75 c-19 68 -20 79 -8 124 23 85
28 278 9 368 -35 170 -100 282 -256 438 -163 164 -350 303 -522 390 -109 55
-109 55 -91 -38 61 -337 152 -596 265 -760 95 -138 319 -346 480 -446 59 -37
70 -48 82 -87 7 -25 12 -48 10 -51 -4 -6 -361 50 -509 81 -236 49 -440 131
-603 242 -42 29 -129 104 -192 168 -216 215 -346 456 -412 764 -32 148 -32
456 0 603 29 135 72 261 132 389 49 104 55 124 27 81z"/>
<path d="M1206 8895 c15 -141 83 -348 161 -495 71 -132 139 -225 252 -342
l104 -108 -52 0 c-48 0 -55 4 -124 61 -164 139 -416 279 -571 319 -127 32
-320 44 -518 30 -180 -12 -228 -18 -228 -30 0 -15 120 -138 203 -207 159 -132
380 -268 511 -313 180 -62 404 -38 584 60 50 28 68 32 154 35 l96 4 97 -65
c223 -149 489 -246 792 -290 155 -22 453 -20 793 6 360 28 667 24 825 -10 137
-29 260 -72 379 -131 55 -27 100 -49 101 -49 1 0 25 17 53 39 61 45 64 42 -66
106 -261 130 -542 184 -886 171 -94 -4 -188 -9 -211 -12 l-40 -6 -32 68 c-18
39 -37 102 -43 144 -32 218 -116 421 -216 524 -104 107 -300 182 -574 220
-161 22 -300 31 -300 19 0 -12 119 -187 214 -313 137 -183 258 -317 363 -401
104 -83 290 -160 444 -184 28 -4 39 -12 53 -41 9 -20 16 -38 14 -39 -2 -2 -97
-13 -213 -25 -247 -27 -559 -31 -705 -11 -178 25 -378 82 -535 151 -99 44
-247 135 -255 156 -5 13 -21 24 -40 28 -48 9 -259 224 -339 345 -107 162 -179
335 -230 551 -14 62 -18 71 -15 35z"/>
<path d="M11566 8857 c-58 -273 -191 -532 -374 -728 -88 -93 -180 -169 -205
-169 -10 0 -17 -6 -17 -14 0 -19 -120 -94 -250 -154 -275 -130 -603 -192 -925
-177 -137 6 -525 42 -532 49 -2 2 4 20 13 39 15 32 23 37 63 42 63 8 203 51
279 86 132 60 279 192 448 404 116 146 284 388 284 410 0 10 -177 -2 -310 -21
-278 -40 -484 -121 -577 -227 -94 -108 -176 -314 -203 -510 -7 -52 -23 -107
-43 -150 l-32 -68 -59 5 c-349 34 -637 9 -888 -74 -105 -35 -321 -137 -314
-148 2 -4 28 -24 58 -44 l53 -37 100 50 c120 59 247 102 381 130 160 33 470
36 824 9 345 -26 639 -28 795 -6 301 45 572 146 797 297 l88 59 98 -4 c87 -3
104 -7 153 -34 130 -74 315 -111 455 -91 43 6 109 21 145 33 82 29 253 125
379 214 95 67 320 277 320 298 0 15 -45 22 -239 35 -248 17 -455 -4 -617 -64
-137 -51 -410 -223 -499 -315 -27 -28 -37 -31 -87 -32 l-56 0 87 88 c225 226
363 494 417 805 9 49 14 91 11 93 -2 2 -11 -33 -21 -79z"/>
<path d="M6095 7695 c-430 -61 -824 -225 -1170 -489 -108 -82 -300 -270 -389
-381 -187 -230 -326 -485 -420 -767 -253 -757 -115 -1593 369 -2233 439 -581
1114 -933 1839 -961 671 -26 1297 212 1779 676 792 763 973 1967 440 2925
-242 435 -598 773 -1048 995 -226 112 -442 182 -695 226 -132 23 -566 28 -705
9z m654 -320 c377 -53 750 -215 1051 -455 97 -78 264 -245 341 -340 221 -275
377 -624 445 -995 22 -120 30 -478 15 -616 -84 -734 -534 -1373 -1199 -1704
-194 -96 -395 -161 -627 -202 -142 -24 -538 -24 -680 0 -470 83 -871 285
-1190 602 -325 322 -529 710 -616 1169 -30 156 -37 493 -15 662 134 1016 942
1795 1967 1894 125 12 367 5 508 -15z"/>
<path d="M6440 6750 c-19 -5 -84 -12 -145 -16 -75 -5 -103 -9 -87 -15 12 -5
22 -13 22 -18 0 -7 -9 -7 -26 -1 -37 15 -106 12 -128 -5 -24 -18 -26 -16 52
-45 47 -17 75 -21 112 -17 39 5 48 3 44 -8 -7 -18 -38 -25 -114 -24 -44 0 -58
3 -45 9 18 7 18 9 -10 20 -38 15 -95 25 -95 16 0 -4 15 -13 33 -21 17 -8 26
-14 20 -15 -21 0 -14 -17 10 -24 l22 -7 -25 -11 c-25 -11 -25 -11 13 -21 44
-11 61 -2 33 19 -19 13 -18 14 14 14 18 0 30 -3 27 -7 -4 -3 -2 -12 4 -20 14
-17 304 -19 314 -2 12 19 -3 22 -125 20 -81 -1 -120 2 -120 10 0 7 39 9 128 6
145 -4 158 -2 165 24 4 14 14 19 36 19 19 0 34 6 37 15 3 8 22 17 42 20 21 3
59 12 86 20 57 17 80 19 71 5 -4 -6 7 -10 25 -10 17 0 29 -4 26 -9 -3 -4 -46
-12 -96 -15 -97 -8 -120 -20 -68 -35 18 -5 26 -10 18 -10 -8 -1 0 -8 19 -16
22 -10 67 -15 141 -14 88 0 116 -3 152 -20 42 -19 68 -52 68 -86 0 -11 11 -14
40 -13 22 1 43 -2 48 -7 4 -4 -3 -5 -16 -2 -25 6 -56 -18 -46 -35 4 -6 26 -8
51 -5 30 3 43 1 40 -7 -2 -6 -12 -11 -23 -11 -10 0 -25 -4 -31 -8 -18 -11 -12
-58 9 -71 10 -6 18 -16 18 -23 0 -6 24 -32 52 -57 39 -34 61 -46 85 -46 17 0
35 -4 38 -10 3 -5 16 -10 28 -10 16 0 33 17 62 65 41 67 52 74 109 80 37 3
103 31 113 48 8 13 -35 49 -147 126 -191 131 -425 241 -520 246 -30 2 -91 8
-135 13 -94 13 -375 14 -425 2z m510 -30 c0 -5 -15 -10 -34 -10 -18 0 -49 -2
-67 -5 -27 -4 -25 -2 11 9 55 17 90 19 90 6z m-640 -36 c0 -8 -5 -12 -10 -9
-6 4 -8 11 -5 16 9 14 15 11 15 -7z m95 6 c3 -5 2 -10 -4 -10 -5 0 -13 5 -16
10 -3 6 -2 10 4 10 5 0 13 -4 16 -10z"/>
<path d="M5980 6680 c0 -5 5 -10 11 -10 5 0 7 5 4 10 -3 6 -8 10 -11 10 -2 0
-4 -4 -4 -10z"/>
<path d="M5847 6663 c-11 -10 13 -32 29 -26 8 3 22 2 32 -2 32 -13 84 -15 80
-3 -6 18 -128 45 -141 31z"/>
<path d="M5663 6636 c-27 -15 -20 -26 17 -26 25 0 50 16 50 32 0 12 -42 8 -67
-6z"/>
<path d="M5495 6610 c-27 -4 -61 -13 -75 -18 l-25 -11 30 -1 c17 -1 46 -3 65
-6 27 -3 32 -1 20 7 -13 9 -12 10 3 5 20 -7 57 9 57 24 0 11 -3 11 -75 0z"/>
<path d="M6208 6613 c7 -3 16 -2 19 1 4 3 -2 6 -13 5 -11 0 -14 -3 -6 -6z"/>
<path d="M5585 6592 c-11 -2 -28 -10 -39 -18 -17 -12 -16 -13 17 -19 20 -4 41
-4 48 1 8 5 10 3 4 -5 -6 -10 15 -11 96 -6 57 4 107 9 112 12 17 10 5 23 -21
23 -15 0 -33 5 -39 11 -14 14 -47 4 -38 -11 8 -14 -21 -12 -75 3 -25 7 -54 11
-65 9z"/>
<path d="M5860 6592 c0 -14 25 -22 66 -22 19 0 34 -4 34 -10 0 -16 67 -12 73
4 12 30 -24 37 -118 24 -5 -1 -20 2 -32 6 -13 4 -23 3 -23 -2z"/>
<path d="M5860 6560 c0 -5 5 -10 11 -10 5 0 7 5 4 10 -3 6 -8 10 -11 10 -2 0
-4 -4 -4 -10z"/>
<path d="M5356 6527 c3 -9 -4 -21 -16 -30 -23 -16 -20 -20 25 -32 41 -11 85
-6 102 11 8 8 19 14 25 14 6 0 9 -3 5 -6 -10 -10 27 -44 48 -44 15 0 17 -2 6
-9 -11 -7 -10 -11 5 -20 15 -9 7 -10 -36 -4 -30 4 -77 8 -105 8 -27 0 -53 4
-57 9 -4 6 -13 5 -22 -3 -12 -10 -19 -9 -40 4 -14 9 -31 13 -37 9 -7 -4 -35
-9 -63 -10 -28 -2 -61 -5 -73 -6 -38 -5 -263 -211 -263 -242 0 -3 23 -6 50 -6
61 0 114 -25 187 -87 39 -33 57 -43 73 -38 14 5 22 1 28 -13 4 -11 21 -31 39
-46 19 -16 30 -33 27 -41 -4 -10 9 -22 39 -36 52 -26 72 -69 58 -131 -5 -20
-5 -57 0 -82 11 -61 81 -157 130 -178 28 -12 44 -29 62 -64 14 -27 35 -55 47
-62 16 -10 19 -16 10 -26 -8 -11 -3 -18 25 -35 20 -11 34 -25 31 -30 -3 -5 10
-21 29 -35 33 -26 51 -22 20 4 -8 6 -17 22 -21 33 -4 12 -27 46 -50 75 -24 30
-44 60 -44 67 0 24 38 4 50 -26 7 -16 29 -43 49 -61 20 -17 36 -34 36 -37 1
-3 25 -30 54 -58 44 -43 52 -57 47 -77 -8 -32 20 -52 136 -100 71 -30 91 -34
113 -26 34 13 29 14 67 -18 18 -16 55 -35 83 -42 52 -15 95 -48 95 -75 0 -8
10 -20 23 -25 12 -6 42 -22 66 -35 50 -28 63 -31 55 -11 -3 7 3 16 13 20 41
16 78 -108 42 -143 -49 -49 -72 -92 -66 -126 4 -22 1 -38 -8 -45 -16 -13 -8
-51 15 -67 8 -6 38 -55 65 -110 53 -105 58 -110 123 -144 23 -12 48 -29 54
-37 15 -18 14 -126 -2 -208 -7 -33 -14 -86 -17 -119 -3 -33 -16 -86 -30 -117
-14 -32 -23 -65 -19 -73 3 -9 2 -24 -3 -33 -14 -27 -23 -92 -13 -92 5 0 12 10
15 22 4 12 9 19 12 16 12 -11 -7 -59 -21 -54 -9 3 -14 -2 -14 -13 0 -10 -7
-24 -15 -31 -16 -13 -21 -35 -6 -25 5 3 12 1 16 -4 3 -5 -2 -14 -11 -19 -14
-8 -16 -18 -10 -58 3 -27 13 -52 21 -57 9 -4 13 -12 11 -16 -6 -9 77 -56 114
-64 14 -4 45 -1 68 6 l42 13 -34 12 c-24 9 -38 22 -45 44 -15 42 -14 58 4 58
8 0 15 7 15 15 0 9 11 21 25 27 27 12 34 38 11 38 -7 0 -19 6 -25 14 -10 12
-7 17 14 28 14 8 32 25 39 39 7 13 18 23 24 21 7 -1 12 5 12 13 0 9 -6 12 -15
9 -9 -4 -15 0 -15 10 0 12 10 16 35 16 31 0 35 3 35 25 0 19 5 25 23 25 70 0
133 44 106 76 -6 8 -8 14 -3 14 5 0 0 7 -10 15 -23 17 -16 18 38 6 35 -9 41
-7 66 19 16 16 31 38 35 49 3 12 13 21 20 21 8 0 20 10 26 23 6 12 20 30 30
40 13 12 17 26 13 42 -8 34 34 71 110 94 50 15 66 26 87 56 27 40 49 114 49
166 0 16 6 37 14 46 8 10 31 38 50 61 20 24 36 54 36 65 0 40 -12 67 -29 67
-9 0 -35 13 -57 29 -25 18 -56 30 -90 34 -28 3 -66 15 -85 26 -19 11 -44 22
-54 25 -43 9 -65 19 -65 29 0 6 -10 31 -21 55 -26 52 -70 82 -123 82 -30 0
-48 8 -80 36 -22 19 -46 39 -53 45 -7 5 -10 16 -7 24 4 8 1 15 -6 15 -6 0 -8
-4 -5 -10 3 -5 0 -10 -9 -10 -8 0 -16 6 -19 13 -3 9 -11 9 -34 1 -18 -7 -37
-8 -44 -3 -8 5 -26 9 -41 9 -16 0 -28 3 -28 8 0 4 -11 12 -25 19 -20 9 -25 8
-25 -3 0 -8 -10 -14 -22 -14 -18 0 -20 2 -8 10 22 14 3 25 -23 12 -12 -6 -34
-16 -49 -22 -16 -5 -28 -15 -28 -21 0 -7 -7 -20 -16 -30 -15 -17 -18 -17 -41
-2 -20 13 -31 14 -60 5 -33 -10 -38 -9 -63 17 -26 26 -28 30 -19 77 12 61 -2
74 -77 74 -49 0 -52 1 -47 23 5 23 19 60 35 90 12 25 5 31 -37 30 -42 -1 -55
-9 -55 -32 0 -28 -24 -42 -75 -44 -49 -2 -73 16 -95 71 -12 28 -13 86 -2 96 4
4 7 22 7 38 0 26 7 35 40 54 38 22 101 29 110 13 7 -10 45 1 45 13 0 14 135 4
154 -11 9 -8 16 -23 16 -35 0 -11 12 -34 26 -51 21 -24 27 -27 34 -15 14 21
12 33 -10 84 -10 25 -17 53 -14 61 6 16 96 85 110 85 20 0 35 40 23 61 -6 11
-8 23 -5 27 3 3 6 0 6 -7 0 -7 5 -9 10 -6 6 3 10 13 10 21 0 23 49 63 87 70
25 5 32 10 29 23 -8 24 4 35 59 57 27 10 53 20 57 22 3 2 4 -6 1 -17 -6 -25 4
-26 52 -6 113 48 108 45 94 61 -12 14 -14 14 -26 -2 -11 -15 -17 -16 -39 -6
-14 7 -30 10 -35 6 -14 -9 -23 25 -10 40 16 19 -3 31 -43 28 -25 -2 -27 0 -16
13 16 19 49 19 74 0 11 -8 29 -15 40 -15 17 1 15 4 -9 14 -30 14 -30 14 21 14
28 0 66 8 84 17 44 23 48 13 11 -33 -17 -22 -31 -43 -31 -46 0 -3 20 -6 44 -6
27 0 46 -5 49 -12 3 -10 7 -10 20 1 11 9 17 10 17 2 0 -6 9 -11 21 -11 11 0
19 3 17 8 -26 53 -33 61 -57 64 -25 3 -26 6 -23 50 3 39 0 49 -15 55 -10 3
-22 12 -26 20 -4 7 -18 13 -31 13 -12 0 -30 8 -39 18 -8 9 -37 41 -64 70 -45
52 -48 53 -63 35 -28 -35 -52 -43 -82 -27 -16 8 -28 23 -28 34 0 11 -7 20 -15
20 -9 0 -27 7 -41 17 -24 15 -138 28 -156 17 -4 -3 -3 -16 3 -31 7 -20 6 -30
-7 -44 -15 -17 -15 -19 10 -30 40 -18 33 -61 -12 -74 -26 -7 -31 -13 -25 -30
13 -39 9 -60 -13 -63 -11 -2 -27 4 -34 13 -9 11 -9 15 -1 15 7 0 9 5 6 10 -4
6 -10 8 -15 5 -5 -3 -12 6 -16 20 -6 25 -12 28 -85 40 -21 3 -51 12 -68 21
-16 8 -46 16 -66 17 -23 2 -40 10 -51 25 -8 12 -22 22 -30 22 -25 0 -15 37 17
64 17 14 36 26 44 26 7 0 18 6 24 14 6 7 25 16 40 19 16 4 39 16 50 28 l21 23
0 -22 c0 -12 -4 -22 -10 -22 -5 0 -10 -5 -10 -11 0 -6 6 -9 14 -6 7 3 18 1 24
-5 8 -8 18 -7 34 4 15 10 30 12 43 7 26 -10 45 -11 45 -1 0 8 -73 42 -90 42
-6 0 -10 5 -10 11 0 5 4 8 9 5 4 -3 25 2 45 12 29 15 34 20 24 31 -11 11 -10
14 0 18 10 4 10 8 0 21 -11 13 -9 15 16 10 16 -3 40 -1 53 5 18 8 27 6 43 -8
14 -13 17 -22 10 -29 -16 -16 -12 -26 14 -26 13 0 26 7 30 15 3 8 11 15 18 15
9 0 9 -3 -2 -10 -12 -8 -10 -10 10 -8 32 4 39 -14 11 -27 -12 -5 -19 -15 -17
-22 4 -8 -11 -13 -47 -15 -70 -4 -58 -23 15 -23 41 0 64 -5 85 -21 15 -11 46
-24 68 -28 22 -4 50 -10 63 -13 28 -7 29 13 1 22 -11 4 -18 9 -16 11 3 3 21
-2 41 -10 20 -8 34 -11 31 -6 -3 5 0 12 5 15 13 8 -16 45 -35 45 -7 0 -18 7
-25 15 -18 21 4 20 41 -2 28 -17 31 -17 64 1 38 21 45 36 18 36 -10 0 -30 6
-44 14 -14 7 -42 16 -62 20 -21 4 -37 11 -37 17 0 6 5 7 10 4 15 -9 12 11 -3
23 -12 10 -57 24 -139 41 -20 4 -54 17 -76 29 -34 17 -61 21 -174 23 -141 3
-178 -5 -178 -41 0 -24 37 -50 72 -50 15 0 29 -4 32 -9 9 -14 -5 -41 -21 -41
-8 0 -11 -5 -7 -11 4 -7 -1 -9 -12 -7 -11 2 -18 10 -16 18 4 17 -18 31 -40 24
-10 -3 -18 -1 -18 5 0 6 -6 11 -12 11 -22 1 -82 56 -74 69 4 6 11 9 16 6 11
-7 60 15 60 27 0 5 -28 8 -62 6 -61 -3 -63 -4 -60 -28 1 -15 -5 -30 -15 -38
-14 -10 -15 -16 -6 -30 6 -9 16 -16 23 -14 6 1 18 -5 27 -13 14 -15 14 -17 -6
-22 -11 -3 -21 -9 -21 -14 0 -5 -5 -9 -10 -9 -6 0 -9 12 -8 27 2 21 -2 28 -23
33 -16 5 -32 2 -44 -6 -10 -8 -13 -14 -7 -14 7 0 12 -7 12 -15 0 -16 -59 -21
-119 -9 -43 9 -39 27 4 22 26 -3 34 -1 31 8 -3 7 3 14 12 16 10 3 1 9 -23 17
-48 16 -79 49 -63 68 8 10 5 13 -13 13 -50 0 -70 -11 -63 -34 7 -21 6 -21 -14
-2 -12 10 -30 16 -40 14 -26 -7 -133 10 -149 24 -7 5 -60 12 -118 15 -90 4
-104 3 -99 -10z m984 -37 c0 -11 -4 -20 -10 -20 -5 0 -10 9 -10 20 0 11 5 20
10 20 6 0 10 -9 10 -20z m-715 -90 c3 -5 35 -10 70 -10 93 0 88 -16 -6 -18
-47 -1 -78 2 -74 8 3 5 -3 13 -12 19 -16 9 -16 10 -1 11 9 0 20 -4 23 -10z
m725 -70 c0 -5 -4 -10 -10 -10 -5 0 -10 5 -10 10 0 6 5 10 10 10 6 0 10 -4 10
-10z"/>
<path d="M5946 6521 c-4 -5 0 -12 6 -15 7 -3 1 -4 -14 -2 -44 5 -32 -10 20
-27 76 -25 131 0 90 41 -14 14 -94 16 -102 3z"/>
<path d="M6505 6410 c-3 -5 -1 -10 4 -10 6 0 11 5 11 10 0 6 -2 10 -4 10 -3 0
-8 -4 -11 -10z"/>
<path d="M6385 6240 c-3 -5 3 -10 14 -10 11 0 23 5 26 10 3 6 -3 10 -14 10
-11 0 -23 -4 -26 -10z"/>
<path d="M6475 6230 c-3 -5 -1 -10 4 -10 6 0 11 5 11 10 0 6 -2 10 -4 10 -3 0
-8 -4 -11 -10z"/>
<path d="M6485 6080 c-3 -5 1 -10 9 -10 9 0 16 5 16 10 0 6 -4 10 -9 10 -6 0
-13 -4 -16 -10z"/>
<path d="M5140 6022 c0 -5 11 -19 25 -32 l24 -23 -12 32 c-10 28 -37 44 -37
23z"/>
<path d="M6520 5281 c0 -5 5 -13 10 -16 6 -3 10 -2 10 4 0 5 -4 13 -10 16 -5
3 -10 2 -10 -4z"/>
<path d="M6401 5240 c-14 -3 -26 -11 -29 -19 -3 -10 0 -11 17 -1 17 8 31 8 59
-1 52 -17 103 -45 95 -53 -3 -3 12 -6 35 -6 23 0 42 3 42 8 -1 9 -118 61 -161
71 -19 4 -45 5 -58 1z"/>
<path d="M4560 5155 c0 -8 5 -15 10 -15 6 0 10 7 10 15 0 8 -4 15 -10 15 -5 0
-10 -7 -10 -15z"/>
<path d="M6655 5148 c5 -14 1 -18 -17 -19 -13 -1 -6 -5 17 -9 43 -8 115 -2
115 10 0 11 -28 21 -78 30 -38 6 -42 5 -37 -12z"/>
<path d="M6525 5120 c3 -5 16 -10 28 -10 18 0 19 2 7 10 -20 13 -43 13 -35 0z"/>
<path d="M6800 5120 c0 -5 9 -10 20 -10 11 0 20 5 20 10 0 6 -9 10 -20 10 -11
0 -20 -4 -20 -10z"/>
<path d="M6191 4644 c0 -11 3 -14 6 -6 3 7 2 16 -1 19 -3 4 -6 -2 -5 -13z"/>
<path d="M6965 3350 c-8 -13 45 -13 65 0 11 7 6 10 -22 10 -20 0 -40 -4 -43
-10z"/>
<path d="M4230 7234 c-169 -20 -221 -28 -335 -51 -71 -14 -132 -27 -134 -29
-13 -12 115 -119 239 -201 70 -46 240 -143 252 -143 3 0 34 39 69 88 65 89
172 215 228 268 39 37 39 50 -1 58 -45 8 -275 15 -318 10z"/>
<path d="M8286 7229 c-38 -5 -72 -11 -74 -14 -3 -2 34 -45 80 -94 47 -49 120
-136 163 -193 42 -57 81 -107 85 -112 11 -11 180 79 295 158 103 70 210 166
198 177 -10 9 -180 43 -318 64 -129 19 -341 27 -429 14z"/>
<path d="M10823 7089 c-135 -12 -291 -74 -420 -165 -46 -33 -71 -44 -100 -45
-21 0 -72 -6 -113 -12 l-75 -12 -96 43 c-53 23 -140 54 -195 69 -91 24 -115
27 -294 27 -155 1 -213 -3 -280 -18 -192 -42 -389 -121 -558 -226 l-82 -51 27
-47 c14 -26 30 -51 34 -56 4 -5 43 14 86 41 43 27 108 67 145 87 l67 37 15
-30 c9 -16 16 -41 16 -54 0 -64 53 -357 72 -397 65 -138 338 -315 662 -429
l89 -31 -7 76 c-33 362 -177 645 -378 743 -54 25 -173 57 -292 76 -91 15 -108
25 -104 60 2 15 25 26 99 51 169 57 245 69 434 68 150 -1 181 -4 268 -27 414
-111 764 -456 940 -928 83 -222 130 -441 148 -697 10 -149 6 -298 -16 -507 -4
-42 -3 -45 5 -20 26 80 42 311 36 515 -3 113 -10 228 -15 255 -5 28 -7 52 -5
54 10 11 50 -85 100 -239 91 -286 173 -473 256 -585 51 -70 159 -155 272 -216
86 -46 287 -130 297 -123 3 2 -4 47 -16 101 -82 361 -175 592 -285 704 -92 93
-238 180 -425 249 -97 37 -101 39 -130 89 -25 42 -34 50 -52 46 -19 -5 -23 1
-33 52 -83 416 -248 751 -490 993 -53 52 -128 118 -168 145 -39 28 -71 53 -72
56 0 3 30 10 68 16 67 10 67 10 107 -22 142 -114 464 -264 670 -311 116 -27
362 -25 560 5 196 29 350 63 350 78 0 20 -134 130 -260 214 -170 114 -435 240
-585 280 -65 17 -194 25 -277 18z"/>
<path d="M1695 7070 c-144 -37 -404 -159 -562 -262 -143 -93 -295 -219 -281
-234 21 -21 342 -78 533 -94 138 -12 266 -9 368 10 186 35 560 209 699 325 24
20 32 21 84 13 32 -5 60 -10 62 -12 1 -2 -26 -24 -62 -50 -262 -187 -474 -493
-590 -855 -29 -90 -86 -319 -86 -347 0 -3 -9 -3 -20 1 -15 5 -24 -3 -44 -43
-23 -46 -29 -50 -103 -77 -287 -103 -468 -234 -555 -400 -66 -129 -129 -318
-183 -560 -13 -55 -21 -103 -19 -107 7 -11 135 37 244 91 221 109 317 197 407
376 66 130 141 325 193 500 18 61 41 124 52 140 l19 30 -5 -40 c-3 -22 -8
-130 -12 -240 -5 -157 -3 -230 10 -340 17 -139 42 -270 31 -160 -21 203 -25
350 -15 493 23 328 88 592 211 851 143 301 365 546 621 684 285 155 605 179
938 71 130 -42 133 -44 125 -77 -6 -22 -14 -27 -53 -32 -123 -17 -282 -58
-349 -91 -129 -62 -238 -207 -303 -402 -43 -130 -84 -392 -64 -405 13 -7 200
65 333 129 209 100 366 225 411 326 10 24 31 122 45 218 32 216 31 211 48 234
13 18 15 17 68 -9 30 -15 91 -52 137 -81 45 -30 86 -54 90 -54 7 0 62 92 62
103 0 9 -155 100 -249 147 -94 47 -278 110 -391 135 -105 23 -351 31 -459 15
-102 -15 -253 -61 -335 -102 l-59 -30 -116 13 c-115 12 -116 12 -197 66 -169
111 -306 153 -494 152 -78 0 -137 -6 -185 -19z"/>
<path d="M3823 5015 c7 -216 22 -329 73 -534 72 -291 182 -542 349 -796 343
-522 876 -907 1475 -1066 70 -19 124 -39 139 -52 23 -22 23 -25 18 -152 -7
-161 -68 -615 -107 -791 -59 -264 -136 -521 -227 -756 -38 -98 -55 -128 -101
-179 -30 -33 -78 -76 -106 -95 l-51 -34 1083 0 1083 0 -78 89 c-48 54 -85 107
-97 137 -151 398 -228 667 -292 1024 -35 192 -63 433 -71 591 l-6 136 44 30
c24 17 69 36 99 43 86 20 297 95 409 144 806 357 1384 1136 1495 2016 20 158
29 368 17 405 l-9 30 -1 -35 c-2 -68 -30 -247 -56 -365 -106 -474 -339 -898
-685 -1246 -288 -290 -607 -489 -1002 -624 -283 -97 -577 -141 -893 -132 -509
15 -950 154 -1365 432 -317 213 -556 464 -774 813 -42 67 -140 267 -180 368
-78 198 -133 417 -162 644 -9 74 -19 137 -21 140 -3 3 -3 -80 0 -185z"/>
</g>
</svg>
