<svg preserveAspectRatio="xMidYMid meet" data-bbox="23.6 81.2 160 35.8" viewBox="23.6 81.2 160 35.8" height="200" width="200" xmlns="http://www.w3.org/2000/svg" data-type="color" role="presentation" aria-hidden="true" aria-labelledby="svgcid--6y7u5a62g1pd"><defs><style>#comp-kybfex4j svg [data-color="1"] {fill: #F5A68D;}</style></defs><title id="svgcid--6y7u5a62g1pd"></title>
    <g>
        <path d="m54.6 81.5-10.3 5.3-10.2-5.6-.6 11.6-9.9 6 9.8 6.3.2 11.6 10.3-5.3 10.2 5.6.6-11.6 9.9-6-9.8-6.3-.2-11.6zm-.8 11.7-8.5 4.7 3.2-5.5-.9-.5-2.9 4.9v-8.9l8.8-4.5.3 9.8zm-10.1-5.4v9.7l-3.1-5.6-.9.5 3 5.3-8.1-4.8.5-9.9 8.6 4.8zM25.6 98.9l8.5-5.1 7.7 4.6h-4.2v1h5.1l-8.7 4.9-8.4-5.4zm8.8 6.3 8.1-4.5-2.5 4.2.9.5 2.9-4.9v9.8l-9.1 4.7-.3-9.8zm10.4 5.6v-9.3l1.7 3.1.9-.5-1.9-3.4 8.1 4.8-.5 9.9-8.3-4.6zm9.4-6.2-8.6-5.1h4.9v-1h-3.8l7.7-4.3 8.3 5.4-8.5 5z" fill="#f5a68d" data-color="1"></path>
        <path d="M86.6 112.9H123V87.1H86.6v25.8zm1-12.3h13.2v11.3H87.6v-11.3zm34.4 11.2h-20V88.2h20v23.6zm-21.1-23.6v11.4H87.6V88.2h13.3z" fill="#f5a68d" data-color="1"></path>
        <path d="M112.4 105.9c3.5 0 6.4-2.9 6.4-6.4s-2.9-6.4-6.4-6.4-6.4 2.9-6.4 6.5c0 3.5 2.9 6.3 6.4 6.3zm0-11.7c2.9 0 5.3 2.4 5.3 5.3s-2.4 5.3-5.3 5.3-5.3-2.4-5.3-5.3c-.1-2.9 2.3-5.3 5.3-5.3z" fill="#f5a68d" data-color="1"></path>
        <path d="m180.8 91 2.8-5.6h-38.1l2.4 5.6h5.3v4.5h-4.9v1h4.9v19.7h1V96.5h20.4v19.7h1V96.5h4.9v-1h-4.9V91h5.2zm-32.2-1.1-1.5-3.5h34.8l-1.7 3.5h-31.6zm5.6 5.5V91h7v4.5l-7-.1zm8 0V91h4.3v4.5l-4.3-.1zm12.3 0h-7V91h7v4.4z" fill="#f5a68d" data-color="1"></path>
    </g>
</svg>