<svg preserveAspectRatio="xMidYMid meet" data-bbox="20 84.5 160 30.5" viewBox="20 84.5 160 30.5" height="200" width="200" xmlns="http://www.w3.org/2000/svg" data-type="color" role="presentation" aria-hidden="true" aria-labelledby="svgcid-gut8iqf3x8ck"><defs><style>#comp-kybh43rq1 svg [data-color="1"] {fill: #F5A68D;}</style></defs><title id="svgcid-gut8iqf3x8ck"></title>
    <g>
        <path d="M179.7 98c-4.5-5.5-11-8.7-18-8.7-7.3 0-14 3.4-18.5 9.4l-.2.3 18.8 15.2L180 98.3l-.3-.3zm-35.5.9c1.5-1.9 3.3-3.6 5.2-4.9l10.7 17.8-15.9-12.9zm6-5.4c2.1-1.3 4.3-2.2 6.7-2.8l4 20.6-10.7-17.8zm7.5-3c1.3-.3 2.7-.4 4.1-.4 1.1 0 2.2.1 3.2.2l-3.2 21.1-4.1-20.9zm8.1 0c2.4.5 4.7 1.3 6.8 2.5l-9.9 17.9 3.1-20.4zm-2.5 21.2 10.1-18.2c2 1.3 3.8 2.8 5.4 4.7l-15.5 13.5z" fill="#f5a68d" data-color="1"></path>
        <path d="M110.2 92.8c-9.6 0-24.8 8.5-27 9.8-1.8-1.3-3.5-2.8-5.2-4.3-.9-.8-1.8-1.6-2.6-2.5l-.6.6c.9.8 1.8 1.7 2.7 2.5 1.6 1.4 3.3 2.8 5 4.1-1.3.9-2.5 1.8-3.6 2.8-1.4 1.2-2.8 2.6-4.1 4l.6.6c1.2-1.4 2.6-2.7 4-4 1.2-1 2.5-2 3.8-2.9 2.1 1.2 17.4 9.8 27.1 9.8 5.7 0 10.3-4.6 10.3-10.3-.1-5.6-4.7-10.2-10.4-10.2zM84 103.1c2.6-1.4 12.4-6.7 20.8-8.7-2.9 1.8-4.8 5-4.8 8.7s1.9 6.9 4.8 8.7c-8.4-2-18.2-7.3-20.8-8.7zm26.2 9.4c-5.2 0-9.4-4.2-9.4-9.4s4.2-9.4 9.4-9.4 9.4 4.2 9.4 9.4c.1 5.2-4.2 9.4-9.4 9.4z" fill="#f5a68d" data-color="1"></path>
        <path d="M110.2 100.1c-1.7 0-3 1.3-3 3s1.3 3 3 3 3-1.3 3-3c0-1.6-1.4-3-3-3zm0 5.2c-1.2 0-2.1-1-2.1-2.1 0-1.2 1-2.1 2.1-2.1 1.2 0 2.1 1 2.1 2.1s-.9 2.1-2.1 2.1z" fill="#f5a68d" data-color="1"></path>
        <path d="m38.9 85.1-.6-.6-2.5 2.2-2.5-2.2-.6.6 2.4 2.1L20 100.6l.6.6 4.2-3.7V115h21.9V97.5l4.3 3.8.6-.6-15.2-13.4 2.5-2.2zm6.9 11.6v17.4H25.6V96.8l10.1-8.9 10.1 8.8z" fill="#f5a68d" data-color="1"></path>
        <path d="M30 102.5c0 3.3 2.7 6 6 6s6-2.7 6-6-2.7-6-6-6-6 2.7-6 6zm5.9-5.1c2.8 0 5.1 2.3 5.1 5.1s-2.3 5.1-5.1 5.1-5.1-2.3-5.1-5.1c0-2.9 2.3-5.1 5.1-5.1z" fill="#f5a68d" data-color="1"></path>
    </g>
</svg>