<svg preserveAspectRatio="xMidYMid meet" data-bbox="63.5 20 73 160.1" viewBox="63.5 20 73 160.1" height="200" width="200" xmlns="http://www.w3.org/2000/svg" data-type="color" role="presentation" aria-hidden="true" aria-labelledby="svgcid--xj50nm-fq4n5c"><defs><style>#comp-kybftuy2 svg [data-color="1"] {fill: #FFF6EB;}</style></defs><title id="svgcid--xj50nm-fq4n5c"></title>
    <g>
        <path d="M100 20c-20.1 0-36.5 16.4-36.5 36.5v87.1c0 20.1 16.4 36.5 36.5 36.5s36.5-16.4 36.5-36.5V56.5c0-20.1-16.4-36.5-36.5-36.5zm35.2 123.5c0 19.4-15.8 35.2-35.2 35.2s-35.2-15.8-35.2-35.2v-87c0-19.4 15.8-35.2 35.2-35.2s35.2 15.8 35.2 35.2v87z" fill="#fff6eb" data-color="1"></path>
        <path d="M115.7 120.3c-2.8 0-4.3 1.4-5.6 2.7-1.3 1.2-2.4 2.3-4.7 2.3-2.3 0-3.4-1.1-4.7-2.3-1.3-1.3-2.7-2.7-5.6-2.7-2.8 0-4.3 1.4-5.6 2.7-1.3 1.2-2.4 2.3-4.7 2.3-2.3 0-3.4-1.1-4.7-2.3-1.3-1.3-2.7-2.7-5.6-2.7v1.3c2.3 0 3.4 1.1 4.7 2.3 1.3 1.3 2.7 2.7 5.6 2.7 2.8 0 4.3-1.4 5.6-2.7 1.3-1.2 2.4-2.3 4.7-2.3 2.3 0 3.4 1.1 4.7 2.3 1.3 1.3 2.7 2.7 5.6 2.7 2.8 0 4.3-1.4 5.6-2.7 1.3-1.2 2.4-2.3 4.7-2.3s3.4 1.1 4.7 2.3c1.3 1.3 2.7 2.7 5.6 2.7v-1.3c-2.3 0-3.4-1.1-4.7-2.3-1.3-1.3-2.8-2.7-5.6-2.7z" fill="#fff6eb" data-color="1"></path>
        <path d="M115.7 131.2c-2.8 0-4.3 1.4-5.6 2.7-1.3 1.2-2.4 2.3-4.7 2.3-2.3 0-3.4-1.1-4.7-2.3-1.3-1.3-2.7-2.7-5.6-2.7-2.8 0-4.3 1.4-5.6 2.7-1.3 1.2-2.4 2.3-4.7 2.3-2.3 0-3.4-1.1-4.7-2.3-1.3-1.3-2.7-2.7-5.6-2.7v1.3c2.3 0 3.4 1.1 4.7 2.3 1.3 1.3 2.7 2.7 5.6 2.7s4.3-1.4 5.6-2.7c1.3-1.2 2.4-2.3 4.7-2.3 2.3 0 3.4 1.1 4.7 2.3 1.3 1.3 2.7 2.7 5.6 2.7 2.8 0 4.3-1.4 5.6-2.7 1.3-1.2 2.4-2.3 4.7-2.3s3.4 1.1 4.7 2.3c1.3 1.3 2.7 2.7 5.6 2.7v-1.3c-2.3 0-3.4-1.1-4.7-2.3-1.3-1.3-2.8-2.7-5.6-2.7z" fill="#fff6eb" data-color="1"></path>
        <path d="M115.7 142.1c-2.8 0-4.3 1.4-5.6 2.7-1.3 1.2-2.4 2.3-4.7 2.3-2.3 0-3.4-1.1-4.7-2.3-1.3-1.3-2.7-2.7-5.6-2.7-2.8 0-4.3 1.4-5.6 2.7-1.3 1.2-2.4 2.3-4.7 2.3-2.3 0-3.4-1.1-4.7-2.3-1.3-1.3-2.7-2.7-5.6-2.7v1.3c2.3 0 3.4 1.1 4.7 2.3 1.3 1.3 2.7 2.7 5.6 2.7s4.3-1.4 5.6-2.7c1.3-1.2 2.4-2.3 4.7-2.3 2.3 0 3.4 1.1 4.7 2.3 1.3 1.3 2.7 2.7 5.6 2.7 2.8 0 4.3-1.4 5.6-2.7 1.3-1.2 2.4-2.3 4.7-2.3s3.4 1.1 4.7 2.3c1.3 1.3 2.7 2.7 5.6 2.7v-1.3c-2.3 0-3.4-1.1-4.7-2.3-1.3-1.3-2.8-2.7-5.6-2.7z" fill="#fff6eb" data-color="1"></path>
        <path d="M100 64.5c2 0 3.6-1.6 3.6-3.6s-1.6-3.6-3.6-3.6-3.6 1.6-3.6 3.6 1.7 3.6 3.6 3.6zm0-6c1.3 0 2.4 1.1 2.4 2.4 0 1.3-1.1 2.4-2.4 2.4s-2.4-1.1-2.4-2.4 1.1-2.4 2.4-2.4z" fill="#fff6eb" data-color="1"></path>
        <path d="M94.4 98.1c-.9 1-1.9 2.1-2.8 3.1l.9.9c1-1 2-2 2.9-3.1 1.6-1.8 3.2-3.7 4.7-5.7 1 1.4 2 2.8 3.1 4.1 1.4 1.7 3 3.3 4.7 4.8l.8-.9c-1.6-1.4-3.2-3-4.6-4.6-1.2-1.4-2.3-2.9-3.3-4.3 1.6-2.8 11.3-20.2 11.3-31.4 0-6.6-5.4-12-12-12s-12 5.4-12 12c0 11.1 9.6 28.4 11.3 31.3-1.7 1.9-3.3 3.9-5 5.8zM100 50c6 0 10.8 4.8 10.8 10.8S106 71.6 100 71.6s-10.8-4.8-10.8-10.8S94 50 100 50zm0 22.9c4 0 7.6-2 9.8-5.1-2.3 9.3-8 19.9-9.8 23.1-1.8-3.2-7.5-13.8-9.8-23.1 2.2 3.1 5.8 5.1 9.8 5.1z" fill="#fff6eb" data-color="1"></path>
    </g>
</svg>