<svg preserveAspectRatio="xMidYMid meet" data-bbox="20 84.5 160 30.5" viewBox="20 84.5 160 30.5" height="200" width="200" xmlns="http://www.w3.org/2000/svg" data-type="color" role="presentation" aria-hidden="true" aria-labelledby="svgcid-gut8iqf3x8ck"><defs><style>#comp-kybh43rq1 svg [data-color="1"] {fill: #F5A68D;}</style></defs><title id="svgcid-gut8iqf3x8ck"></title>
    <g>
        <path d="M179.7 98c-4.5-5.5-11-8.7-18-8.7-7.3 0-14 3.4-18.5 9.4l-.2.3 18.8 15.2L180 98.3l-.3-.3zm-35.5.9c1.5-1.9 3.3-3.6 5.2-4.9l10.7 17.8-15.9-12.9zm6-5.4c2.1-1.3 4.3-2.2 6.7-2.8l4 20.6-10.7-17.8zm7.5-3c1.3-.3 2.7-.4 4.1-.4 1.1 0 2.2.1 3.2.2l-3.2 21.1-4.1-20.9zm8.1 0c2.4.5 4.7 1.3 6.8 2.5l-9.9 17.9 3.1-20.4zm-2.5 21.2 10.1-18.2c2 1.3 3.8 2.8 5.4 4.7l-15.5 13.5z" fill="#f5a68d" data-color="1"></path>
    </g>
</svg>