<svg preserveAspectRatio="xMidYMid meet" data-bbox="19.8 81.2 160.2 36.1" viewBox="19.8 81.2 160.2 36.1" height="200" width="200" xmlns="http://www.w3.org/2000/svg" data-type="color" role="presentation" aria-hidden="true" aria-labelledby="svgcid--p3jnqv-7hnbgs"><defs><style>#comp-kybfwybm svg [data-color="1"] {fill: #F5A68D;}</style></defs><title id="svgcid--p3jnqv-7hnbgs"></title>
    <g>
        <path d="M51.4 97.1c-.2-1.2.9-2.4 2.5-2.7h.2l1.1-.1-.6-.7c-1.8-2.3-5.4-3.4-9-2.8-.3.1-.6.1-1 .2v-1.1c0-3.3-1.4-6.4-3.7-8l-.8-.5v1c0 1.6-1 2.9-2.2 2.9s-2.2-1.3-2.2-2.9v-.2l.1-1-.8.4c-2.4 1.3-4.1 4.3-4.3 7.7-3-.9-6.1-.6-8.2.9l-.8.6.9.3c.7.3 1.4.8 1.7 1.4.3.6.4 1.2.2 1.7-.4 1.2-2 1.7-3.5 1.1-.1 0-.1-.1-.2-.1l-1-.5.1.9c.4 2.7 2.6 5.3 5.8 6.6-1.9 2.5-2.6 5.5-1.9 8l.3 1 .6-.9c1-1.2 2.6-1.6 3.6-.8.4.4.7.9.7 1.6s-.3 1.4-.8 2.1c0 .1-.1.1-.1.1l-.8.7.9.2c2.7.6 5.9-.7 8.2-3.1 1.7 2.6 4.3 4.4 6.9 4.6l1 .1-.5-.9c-.4-.7-.6-1.5-.5-2.2s.4-1.2.9-1.5 1.1-.3 1.7-.1c.7.3 1.2.8 1.6 1.5 0 .1.1.1.1.2l.4 1 .5-.8c1.5-2.4 1.4-5.8-.1-8.8 3-.7 5.5-2.5 6.6-4.9l.4-.9-1 .2c-1.4.5-2.8-.3-3-1.5zm-3.7 6.5-.7.1.4.6c1.5 2.5 1.8 5.4.9 7.6-.5-.7-1.1-1.2-1.9-1.4-.9-.4-1.8-.3-2.6.1s-1.3 1.2-1.4 2.2c-.1.6 0 1.3.2 2-2.1-.5-4.2-2.1-5.6-4.5l-.4-.6-.5.6c-1.9 2.2-4.5 3.5-6.8 3.4.5-.7.7-1.5.7-2.2 0-1-.3-1.8-1-2.4-1.2-1-2.9-.8-4.3.3-.3-2.2.6-4.7 2.3-6.8l.4-.6-.7-.2c-2.8-1-4.8-3-5.5-5.2 1.9.4 3.7-.3 4.3-1.9.3-.8.2-1.8-.3-2.6-.3-.5-.8-1-1.4-1.4 2-1 4.6-1 7.2-.1l.7.2V90c0-2.9 1.2-5.6 3-7 .2 1.9 1.6 3.4 3.2 3.4 1.5 0 2.8-1.3 3.1-3 1.6 1.5 2.6 3.9 2.6 6.6 0 .6 0 1.1-.1 1.7l-.1.8.8-.3c.5-.2 1-.3 1.6-.4 2.9-.5 5.7.2 7.4 1.8-1.8.5-3 2.1-2.8 3.7.3 1.5 1.7 2.5 3.5 2.6-1.2 1.8-3.5 3.2-6.2 3.7z" fill="#f5a68d" data-color="1"></path>
        <path fill="#f5a68d" d="M38.4 92.3V97h-1v-4.7h1z" data-color="1"></path>
        <path fill="#f5a68d" d="m34.516 93.158 2.762 3.802-.809.588-2.762-3.802.809-.588z" data-color="1"></path>
        <path fill="#f5a68d" d="m32.006 96.095 4.47 1.453-.31.951-4.469-1.453.31-.95z" data-color="1"></path>
        <path fill="#f5a68d" d="m36.132 98.5.308.952-4.47 1.451-.309-.95 4.47-1.452z" data-color="1"></path>
        <path fill="#f5a68d" d="m36.473 99.515.809.588-2.764 3.801-.809-.588 2.764-3.801z" data-color="1"></path>
        <path fill="#f5a68d" d="M38.2 100.2v4.7h-1v-4.7h1z" data-color="1"></path>
        <path fill="#f5a68d" d="m39.012 99.664 2.762 3.803-.809.588-2.762-3.803.81-.588z" data-color="1"></path>
        <path fill="#f5a68d" d="m39.426 98.658 4.47 1.452-.308.951-4.47-1.452.308-.951z" data-color="1"></path>
        <path fill="#f5a68d" d="m43.632 96.2.308.951-4.47 1.45-.309-.95 4.47-1.451z" data-color="1"></path>
        <path fill="#f5a68d" d="m41.127 93.196.809.588-2.765 3.801-.808-.588 2.764-3.801z" data-color="1"></path>
        <path d="M115 96.1h-3.1v-6.2c2.2-.3 3.9-2.1 3.9-4.4h-1c0 1.9-1.5 3.4-3.4 3.4h-3.8V83h-8.3v6h-3.8c-1.9 0-3.4-1.5-3.4-3.4h-1c0 2.3 1.7 4.1 3.9 4.4v6.2h-3.1c-2.6 0-4.6-2.1-4.6-4.6h-1c0 2.9 2.3 5.4 5.1 5.6v20.1h24.1V97.1c2.9-.3 5.1-2.7 5.1-5.6h-1c0 2.5-2.1 4.6-4.6 4.6zm-14.7-12h6.3V89h-6.3v-4.9zM96.1 90H111v6.1H96.1V90zm3.2 26.2v-15.1h8.3v15.1h-8.3zm15.2 0h-5.9v-16.1H98.3v16.1h-5.9V97.1h22l.1 19.1z" fill="#f5a68d" data-color="1"></path>
        <path d="M176.9 91.5c-.9-1-1.9-2.2-3.9-2.2s-3 1.2-3.9 2.2-1.6 1.8-3.1 1.8-2.3-.8-3.1-1.8c-.9-1-1.9-2.2-3.9-2.2s-3 1.2-3.9 2.2-1.6 1.8-3.1 1.8-2.3-.8-3.1-1.8c-.9-1-1.9-2.2-3.9-2.2v1c1.5 0 2.3.8 3.1 1.8.9 1 1.9 2.2 3.9 2.2s3-1.2 3.9-2.2 1.6-1.8 3.1-1.8 2.3.8 3.1 1.8c.9 1 1.9 2.2 3.9 2.2s3-1.2 3.9-2.2 1.6-1.8 3.1-1.8 2.3.8 3.1 1.8c.9 1 1.9 2.2 3.9 2.2v-1c-1.5 0-2.3-.8-3.1-1.8z" fill="#f5a68d" data-color="1"></path>
        <path d="M176.9 100.3c-.9-1-1.9-2.2-3.9-2.2s-3 1.2-3.9 2.2-1.6 1.8-3.1 1.8-2.3-.8-3.1-1.8c-.9-1-1.9-2.2-3.9-2.2s-3 1.2-3.9 2.2-1.6 1.8-3.1 1.8-2.3-.8-3.1-1.8c-.9-1-1.9-2.2-3.9-2.2v1c1.5 0 2.3.8 3.1 1.8.9 1 1.9 2.2 3.9 2.2s3-1.2 3.9-2.2 1.6-1.8 3.1-1.8 2.3.8 3.1 1.8c.9 1 1.9 2.2 3.9 2.2s3-1.2 3.9-2.2 1.6-1.8 3.1-1.8 2.3.8 3.1 1.8c.9 1 1.9 2.2 3.9 2.2v-1c-1.5 0-2.3-.9-3.1-1.8z" fill="#f5a68d" data-color="1"></path>
        <path d="M176.9 109c-.9-1-1.9-2.2-3.9-2.2s-3 1.2-3.9 2.2-1.6 1.8-3.1 1.8-2.3-.8-3.1-1.8c-.9-1-1.9-2.2-3.9-2.2s-3 1.2-3.9 2.2-1.6 1.8-3.1 1.8-2.3-.8-3.1-1.8c-.9-1-1.9-2.2-3.9-2.2v1c1.5 0 2.3.8 3.1 1.8.9 1 1.9 2.2 3.9 2.2s3-1.2 3.9-2.2 1.6-1.8 3.1-1.8 2.3.8 3.1 1.8c.9 1 1.9 2.2 3.9 2.2s3-1.2 3.9-2.2 1.6-1.8 3.1-1.8 2.3.8 3.1 1.8c.9 1 1.9 2.2 3.9 2.2v-1c-1.5 0-2.3-.8-3.1-1.8z" fill="#f5a68d" data-color="1"></path>
    </g>
</svg>