<svg preserveAspectRatio="xMidYMid meet" data-bbox="20 20 160 160" viewBox="20 20 160 160" height="200" width="200" xmlns="http://www.w3.org/2000/svg" data-type="color" role="img" aria-labelledby="svgcid--6opqff550kyn"><defs><style>#comp-kybfd3gp svg [data-color="1"] {fill: #FFF6EB;}
#comp-kybfd3gp svg [data-color="2"] {fill: #F5A68D;}</style></defs><title id="svgcid--6opqff550kyn">Homepage</title>
    <g>
        <path d="M100 20c-44.1 0-80 35.9-80 80s35.9 80 80 80 80-35.9 80-80-35.9-80-80-80zm0 2.2c42.9 0 77.8 34.9 77.8 77.8 0 16.7-5.3 32.1-14.2 44.8l-53.1-40.5H87l-52 38.5c-8.1-12.3-12.9-27-12.9-42.8.1-42.9 35-77.8 77.9-77.8zm0 155.6c-26.3 0-49.7-13.2-63.7-33.2l51.4-38.1h.3l-16.9 22.6 1.7 1.3 17.8-23.9h1.5l-17.9 39.4 2 .9 18.3-40.3h1.3L88.6 143l2.1.4 7.3-36.9h.9v58.2h2.2v-58.2h1l7 36.6 2.1-.4-7-36.2h1.3l17.6 40.9 2-.9-17.2-40h.2l18.6 23.3 1.7-1.4-15.8-19.8 49.7 37.9c-14.2 19-36.8 31.3-62.3 31.3z" fill="#fff6eb" data-color="1"></path>
        <path fill="#f5a68d" d="M120.8 61.2c0 11.488-9.312 20.8-20.8 20.8-11.488 0-20.8-9.312-20.8-20.8 0-11.488 9.312-20.8 20.8-20.8 11.488 0 20.8 9.312 20.8 20.8z" data-color="2"></path>
    </g>
</svg>