<svg preserveAspectRatio="xMidYMid meet" data-bbox="20 60.287 160 79.513" viewBox="20 60.287 160 79.513" height="200" width="200" xmlns="http://www.w3.org/2000/svg" data-type="color" role="img" aria-labelledby="svgcid--oucvrczb1zyz"><defs><style>#comp-kybex08g svg [data-color="1"] {fill: #FFF6EB;}</style></defs><title id="svgcid--oucvrczb1zyz">Open site navigation</title>
    <g>
        <path fill="#fff6eb" d="M179.1 135.3v4.5H20.6v-4.5h158.5z" data-color="1"></path>
        <path fill="#fff6eb" d="M179.1 102.9v4.5H20.6v-4.5h158.5z" data-color="1"></path>
        <path d="M139.3 80c-1.8 0-3.5-.1-5.3-.2-12.6-.8-21.5-4.2-29.3-7.2-2-.7-3.8-1.5-5.7-2.1-22-7.7-48.2-7.7-77.7.1L20 66.2c30.4-7.9 57.5-7.9 80.3.1 1.9.7 3.9 1.4 5.9 2.2 7.6 2.9 16.1 6.2 28 6.9 14.4.9 29.2-2.1 43.9-9l1.9 4.1c-13.6 6.2-27.3 9.5-40.7 9.5z" fill="#fff6eb" data-color="1"></path>
    </g>
</svg>