<svg width="55" height="68" viewBox="0 0 55 68" fill="none" xmlns="http://www.w3.org/2000/svg">
<path d="M0.996277 3.38853L0.996094 3.39246V3.3964V48.8634V48.8671L0.996238 48.8703C1.03075 49.7595 1.18409 50.4139 1.56481 50.9598C1.94204 51.5007 2.52727 51.9124 3.37443 52.3503L3.38194 52.355L3.42475 52.3822L3.59209 52.4889L4.22968 52.8952C4.78036 53.2459 5.57009 53.7491 6.52664 54.3582C8.43939 55.5767 11.019 57.2192 13.6857 58.9166C19.0187 62.3106 24.7015 65.9233 26.0968 66.795L26.1004 66.7972C26.5162 67.0439 26.873 67.1712 27.2596 67.1665C27.6408 67.1621 28.0278 67.0294 28.5022 66.8052L28.5321 66.791L28.555 66.7674C30.486 64.7802 33.4588 61.8575 36.7074 58.6638C39.1653 56.2474 41.781 53.6758 44.2232 51.2363C47.0561 48.4067 49.6542 45.756 51.4959 43.7373C52.416 42.7285 53.1503 41.8738 53.6313 41.2321C53.8707 40.9121 54.0525 40.6382 54.1619 40.4213C54.2162 40.3132 54.2573 40.2105 54.2763 40.118C54.2905 40.0469 54.2963 39.9602 54.2646 39.879V3.79447V3.79046L54.2643 3.78645C54.238 3.19225 54.1648 2.70805 53.8867 2.26735C53.6102 1.82877 53.1459 1.45633 52.3901 1.04562L52.3493 1.02344H52.3031H27.1776H3.45594H3.44735L3.43875 1.02425C2.53398 1.10967 1.92273 1.29143 1.53763 1.68214C1.15002 2.07538 1.02882 2.64209 0.996277 3.38853Z" fill="#00B682" stroke="#006246"/>
<path d="M11.3472 39.7424L9.54451 43.5035L9.48694 43.6283C9.32551 43.9798 9.20854 44.3498 9.13857 44.7304C9.10869 44.8932 9.09375 45.0587 9.09375 45.2244V45.2618C9.09375 45.4983 9.18266 45.7261 9.343 45.901L9.42718 45.9924C9.5037 46.0758 9.60245 46.1357 9.71177 46.1654C9.99746 46.2434 10.2966 46.2601 10.5893 46.2144L11.1967 46.1201L11.9481 45.9565L41.0393 38.8834C41.1541 38.8555 41.1468 38.6908 41.0306 38.6705L21.2622 35.1635L19.0087 35H16.9054L16.1077 35.0868C15.6391 35.1378 15.1767 35.234 14.7267 35.3739L14.645 35.3993C14.4515 35.4595 14.2726 35.5592 14.1203 35.6921L13.9097 35.8756C13.7038 36.0546 13.5158 36.2524 13.347 36.4664L13.1029 36.7764C12.8343 37.1179 12.5938 37.4806 12.3843 37.8608L11.3472 39.7424Z" fill="white"/>
<path d="M26.6863 8.09688L15.6289 30.9309C15.7397 31.1332 15.8607 31.131 16.1985 30.9309L18.2497 29.275L22.456 25.5138L26.9629 21.7526L30.268 18.809L30.9021 18.2721C31.3762 17.8709 31.765 17.38 32.047 16.8279C32.2602 16.4102 32.3713 15.9483 32.3713 15.4798V15.3655C32.3713 14.9406 32.2791 14.5208 32.1017 14.1344L31.9206 13.7395L31.019 12.1043L28.4624 8.00289C28.2773 7.70597 27.9511 7.52539 27.6002 7.52539C27.2107 7.52539 26.8554 7.74747 26.6863 8.09688Z" fill="white"/>
<path d="M39.8867 25.6791L35.3558 18.7431C35.2198 18.5353 34.9192 18.5213 34.7647 18.7156L33.1264 20.7732L31.7744 22.572L29.9717 24.8614L28.3578 26.8691C28.0382 27.2665 27.8411 27.7473 27.7893 28.2536C27.7431 28.7077 27.8312 29.1653 28.0437 29.5698L28.2007 29.8691C28.2795 30.019 28.372 30.1614 28.4766 30.2945L28.7863 30.6879C29.0735 31.0526 29.4222 31.3647 29.8172 31.6102L30.072 31.7688C30.205 31.8516 30.3456 31.9219 30.4917 31.979L36.1308 34.1827L42.2903 36.9627L43.9429 37.6168L44.7558 37.9117C45.1079 38.0394 45.489 38.0651 45.8552 37.9853C45.9769 37.9588 46.0826 37.8838 46.1475 37.7778L46.1894 37.7096C46.2921 37.542 46.3464 37.3494 46.3464 37.1528V37.003C46.3464 36.8673 46.3341 36.7321 46.3096 36.5988L46.3049 36.5738C46.2331 36.1823 46.0895 35.8072 45.8815 35.4674L39.8867 25.6791Z" fill="white"/>
<path d="M12.5593 39.854L11.0077 42.6015L10.9494 42.7096C10.8168 42.9545 10.7209 43.2175 10.6641 43.4895C10.6389 43.6111 10.6273 43.7351 10.6291 43.8592L10.6295 43.886C10.6324 44.0511 10.7053 44.2071 10.831 44.3148L10.9254 44.3961C10.9993 44.4599 11.0886 44.5034 11.1848 44.523L11.1976 44.5256C11.4453 44.5764 11.7001 44.5836 11.9508 44.5473L12.501 44.4675L13.1639 44.3377L38.4635 39.0182C38.5794 38.9939 38.5797 38.8295 38.4639 38.8052L37.8582 38.6775L21.2816 36.39L19.2854 36.3066L17.4237 36.3392L16.68 36.4184C16.2912 36.4599 15.9067 36.5324 15.5296 36.6352L15.4326 36.6616C15.2584 36.7091 15.0945 36.7883 14.9494 36.8954L14.839 36.9769C14.6215 37.1373 14.4192 37.3175 14.2348 37.5152L14.2013 37.5512C13.8861 37.8893 13.6008 38.2542 13.3486 38.6416L12.5593 39.854Z" fill="#F7F7F7"/>
<path d="M27.0094 9.03647L17.1585 29.1777C16.8367 29.7166 17.3892 29.3932 17.457 29.3361L18.7149 28.0626L22.2113 24.8579L26.1129 21.6319L28.8419 19.1912L30.0998 17.9814L30.786 17.281C30.8968 17.1681 30.997 17.0454 31.0859 16.9145C31.3982 16.4533 31.5294 15.8927 31.4543 15.3387L31.3578 14.6247L30.6093 12.8299L28.3799 8.99552C28.2523 8.77608 28.026 8.6317 27.7731 8.60871C27.4532 8.57954 27.1497 8.74953 27.0094 9.03647Z" fill="#F7F7F7"/>
<path d="M39.033 26.0994L35.4608 20.0997C35.3271 19.8749 35.0056 19.8604 34.8519 20.0722L33.6111 21.7823L32.5266 23.3652L31.0807 25.3799L29.8035 27.1236C29.5353 27.4893 29.3716 27.9203 29.3297 28.371C29.2929 28.7679 29.3644 29.1675 29.5367 29.5274L29.657 29.7793C29.7226 29.916 29.7998 30.0468 29.8884 30.1701L30.0669 30.419C30.3391 30.7982 30.6758 31.127 31.0621 31.3905L31.0851 31.4062C31.2425 31.5136 31.4112 31.603 31.5887 31.6729L36.1717 33.4788L40.98 35.6279L42.3294 36.3117L43.3351 36.7269L43.6467 36.8109C43.8256 36.8591 44.0147 36.7842 44.1117 36.6269C44.1783 36.5181 44.2141 36.393 44.2141 36.2655V36.0527C44.2141 35.941 44.2046 35.8296 44.186 35.7195L44.1813 35.6895C44.123 35.3427 44.0056 35.0083 43.834 34.7009L39.033 26.0994Z" fill="#F7F7F7"/>
</svg>
