<?xml version="1.0" standalone="no"?>
<!DOCTYPE svg PUBLIC "-//W3C//DTD SVG 20010904//EN"
 "http://www.w3.org/TR/2001/REC-SVG-20010904/DTD/svg10.dtd">
<svg version="1.0" xmlns="http://www.w3.org/2000/svg"
 width="529.000000pt" height="93.000000pt" viewBox="0 0 529.000000 93.000000"
 preserveAspectRatio="xMidYMid meet">
<metadata>
Created by potrace 1.16, written by Peter Selinger 2001-2019
</metadata>
<g transform="translate(0.000000,93.000000) scale(0.100000,-0.100000)"
fill="#000000" stroke="none">
<path d="M0 465 l0 -465 2645 0 2645 0 0 465 0 465 -2645 0 -2645 0 0 -465z
m3409 366 c29 -40 26 -44 -13 -20 -31 18 -49 19 -222 17 l-189 -3 0 -165 0
-165 173 -3 c94 -1 172 -5 172 -9 0 -4 -7 -14 -16 -24 -14 -15 -18 -16 -42 -3
-19 10 -65 14 -153 14 -107 0 -128 -3 -133 -16 -12 -31 -7 -339 6 -352 9 -9 3
-12 -27 -12 l-40 0 3 366 c2 262 -1 370 -9 380 -9 11 26 14 217 17 126 1 234
3 241 5 6 1 21 -11 32 -27z m-3013 -331 c126 -192 232 -350 237 -350 13 0 9
674 -5 688 -9 9 -6 12 16 12 15 0 25 -4 21 -9 -7 -13 -8 -729 0 -741 4 -6 -9
-10 -30 -10 l-35 0 -226 343 c-124 188 -230 346 -235 352 -6 6 -8 -124 -7
-343 3 -307 1 -352 -12 -352 -13 0 -15 46 -12 366 2 264 -1 370 -9 380 -9 12
-4 14 28 14 l39 0 230 -350z m436 338 c-17 -17 -17 -719 0 -736 9 -9 1 -12
-37 -11 -28 0 -44 3 -37 6 17 7 18 723 0 741 -9 9 -1 12 37 12 38 0 46 -3 37
-12z m594 -22 c61 -28 67 -37 62 -92 l-3 -39 -16 35 c-61 134 -273 146 -396
23 -79 -79 -117 -208 -96 -327 39 -229 219 -357 404 -287 90 35 89 32 89 208
l0 153 -35 0 c-20 0 -50 -7 -66 -16 -17 -8 -32 -14 -34 -12 -2 2 10 18 25 36
24 29 31 32 48 23 12 -6 36 -11 54 -11 l33 0 -5 -177 -5 -178 -55 -30 c-50
-27 -64 -30 -145 -30 -78 0 -97 4 -146 28 -70 34 -152 119 -187 194 -38 81
-43 213 -12 295 71 190 304 287 486 204z m235 20 c-8 -9 -11 -66 -9 -182 l3
-169 210 0 210 0 0 183 0 182 39 0 c31 0 37 -3 28 -12 -17 -17 -17 -719 0
-736 9 -9 3 -12 -27 -12 l-40 0 0 182 0 183 -210 0 -210 0 -3 -169 c-2 -116 1
-173 9 -182 9 -12 3 -14 -37 -14 -37 0 -45 3 -36 12 17 17 17 719 0 736 -9 9
-1 12 36 12 40 0 46 -2 37 -14z m1159 -17 l22 -30 -38 20 c-32 17 -57 21 -142
21 l-102 0 2 -370 3 -370 -39 0 c-31 0 -36 3 -27 14 8 9 11 114 9 367 l-3 354
-104 3 c-88 2 -108 0 -137 -17 -39 -23 -44 -17 -12 16 21 23 23 23 284 23
l263 0 21 -31z m865 -16 c10 -27 80 -198 155 -381 l137 -332 -39 0 c-22 0 -37
4 -33 9 6 10 -40 136 -58 159 -7 9 -57 12 -211 10 l-201 -3 -32 -75 c-23 -54
-29 -78 -21 -87 8 -10 5 -13 -15 -13 l-26 0 26 63 c14 34 81 199 150 367 69
168 127 311 130 318 9 22 20 12 38 -35z m456 33 c-8 -9 -11 -114 -9 -367 l3
-354 203 -3 c165 -2 208 0 232 13 41 21 47 19 20 -10 l-23 -25 -246 0 -246 0
0 380 0 380 39 0 c31 0 36 -3 27 -14z m620 0 c-8 -9 -11 -114 -9 -367 l3 -354
203 -3 c165 -2 208 0 232 13 41 21 47 19 20 -10 l-23 -25 -246 0 -246 0 0 380
0 380 39 0 c31 0 36 -3 27 -14z"/>
<path d="M3541 529 c-51 -126 -92 -232 -89 -235 3 -2 91 -3 195 -2 l190 3 -95
233 c-52 127 -97 232 -101 232 -3 0 -48 -104 -100 -231z"/>
</g>
</svg>
