<?xml version="1.0" standalone="no"?>
<!DOCTYPE svg PUBLIC "-//W3C//DTD SVG 20010904//EN"
 "http://www.w3.org/TR/2001/REC-SVG-20010904/DTD/svg10.dtd">
<svg version="1.0" xmlns="http://www.w3.org/2000/svg"
 width="78.000000pt" height="87.000000pt" viewBox="0 0 78.000000 87.000000"
 preserveAspectRatio="xMidYMid meet">

<g transform="translate(0.000000,87.000000) scale(0.100000,-0.100000)"
fill="#000000" stroke="none">
<path d="M365 718 c-85 -30 -139 -107 -139 -198 0 -44 7 -68 33 -117 19 -35
37 -63 42 -63 4 0 9 21 11 48 3 40 6 47 26 50 21 3 22 1 22 -90 l0 -94 39 -38
38 -37 55 63 c75 85 133 177 147 232 38 154 -123 297 -274 244z m185 -123 c0
-23 -3 -24 -67 -27 -65 -3 -68 -4 -68 -28 0 -22 5 -26 40 -30 35 -4 40 -9 43
-32 l3 -28 -65 0 c-63 0 -66 1 -66 24 0 18 -8 27 -31 35 -21 7 -30 16 -27 28
2 14 15 19 51 21 41 3 47 6 47 26 0 33 7 36 77 36 60 0 63 -1 63 -25z"/>
</g>
</svg>
