<svg version="1.2" xmlns="http://www.w3.org/2000/svg" viewBox="0 0 768 1271" width="768" height="1271">
	<title>arvore-sem-fundo7</title>
	<style>
		.s0 { fill: #91be4a } 
		.s1 { fill: #b3d335 } 
		.s2 { fill: #58962f } 
		.s3 { fill: #5b2c01 } 
	</style>
	<g id="Background">
		<path id="Path 0" class="s0" d="m499 119.5c3 0.4 7.3 1.4 9.5 2.4 2.2 1 5.6 3.5 7.6 5.7 1.9 2.1 4.3 6.2 5.4 8.9 1.3 3.5 1.7 6.5 1.3 10-0.3 2.7-1.5 6.8-2.5 9-1.1 2.2-4.2 5.9-6.9 8.2-3 2.6-6.7 4.7-9.4 5.4-2.5 0.6-6.5 0.8-9 0.4-2.5-0.4-6.7-1.9-9.4-3.4-3.4-1.8-6-4.3-8.5-8-3.4-5.1-3.6-5.9-3.6-13.5 0-7 0.4-8.7 2.8-12.8 1.5-2.7 4.1-5.8 5.9-7 1.8-1.3 5-3.1 7.3-4.1 2.9-1.2 5.5-1.6 9.5-1.2zm66 48.5c1.9 0 5.1 0.5 7 1.1 1.9 0.7 5.1 2.4 7.2 3.8 2 1.4 4.8 4.4 6.1 6.6 1.4 2.2 3.1 6.1 3.6 8.8 0.8 3.4 0.8 6.1-0.1 9.9-0.6 2.9-2.5 7.3-4.2 9.8-2.2 3.2-4.8 5.3-9.1 7.4-4.6 2.3-7.3 3-11.5 2.9-3 0-7.2-0.8-9.2-1.7-2.1-0.9-5.4-3.3-7.4-5.4-2-2-4.5-5.5-5.7-7.7-1.4-2.7-2-5.9-2-10 0-3.9 0.7-7.6 2-10.5 1.1-2.5 3.6-6 5.4-7.8 1.9-1.8 5.9-4.1 8.9-5.2 3-1.1 7.1-2 9-2zm-80 56.7c1.9 0.3 5.1 1 7 1.6 1.9 0.6 5.2 2.7 7.4 4.6 2.1 2 4.7 5.2 5.6 7.1 1 1.9 2.1 5.7 2.5 8.5 0.4 2.8 0.2 6.8-0.4 9-0.6 2.2-2.4 6.1-4.1 8.7-2.3 3.7-4.4 5.5-9.3 7.9-6 3-6.4 3-13.2 2-4.5-0.7-8.6-2.1-11.4-3.8-2.6-1.7-5.8-4.9-7.5-7.7-2.5-3.9-3.2-6.3-3.4-11.5-0.3-4.5 0.2-8 1.3-11.1 1-2.5 3.2-6 4.9-7.8 1.7-1.9 4.5-4.1 6.1-5 1.6-0.9 4.8-1.9 7-2.3 2.2-0.3 5.6-0.4 7.5-0.2zm-254.5 15.8c4.8 0.2 10.2 1.2 13.5 2.5 3 1.1 8.1 4.1 11.3 6.5 3.1 2.5 7.3 6.9 9.2 9.7 1.9 2.9 4.5 8.2 5.6 11.8 1.8 5.3 2.1 8.2 1.7 15.5-0.3 7.5-0.9 10-3.3 14.8-1.7 3.3-5.4 8.8-8.3 12.3-4.2 5.2-6.6 7.1-12.9 10.1-7.5 3.7-7.9 3.8-19.2 3.8-11 0-11.9-0.2-18.3-3.3-3.8-1.7-9.1-5.3-11.9-8-2.8-2.6-6.3-6.7-7.7-9.2-1.4-2.5-3.4-7.1-4.4-10.3-1-3.1-1.8-8.5-1.8-12 0-3.4 0.5-8.2 1.1-10.7 0.6-2.5 2.3-6.9 3.7-9.9 1.5-3 5-7.7 7.7-10.6 2.9-3 7.8-6.6 11.5-8.5 3.6-1.8 8.3-3.6 10.5-4.1 2.2-0.4 7.6-0.6 12-0.4zm91.3 23.6c3.5-0.1 7.8 0.6 10 1.5 2 0.8 5.1 2.6 6.7 3.8 1.6 1.3 4.3 4.7 6 7.7 2.4 4.5 2.9 6.5 2.8 11.9 0 4.4-0.6 7.8-2 10.5-1.1 2.2-3.6 5.5-5.4 7.4-1.9 1.9-5.2 4.2-7.4 5.2-2.3 1.1-6.4 1.9-9.5 1.9-3.8 0-7.1-0.7-10.5-2.4-2.7-1.3-6.5-4.1-8.4-6.2-1.9-2.2-4-5.4-4.8-7.2-0.7-1.7-1.3-6-1.3-9.5 0-3.9 0.7-7.7 1.9-10.2 1-2.2 3.8-5.8 6.2-8 2.4-2.2 5.5-4.6 6.9-5.2 1.4-0.6 5.3-1.2 8.8-1.2zm-51.4 61.4c3.4 0.1 7.7 0.9 9.6 1.7 1.9 0.8 5 2.8 6.9 4.4 1.9 1.6 4.5 5.1 5.8 7.9 1.4 3 2.3 6.9 2.3 9.7 0 2.7-0.6 6.9-1.2 9.4-0.7 2.6-2.7 6.3-4.4 8.3-1.7 2-5.3 4.7-8 6-4.2 2-6 2.3-12.5 2-6.2-0.3-8.3-0.9-11.7-3.2-2.3-1.5-5.6-4.6-7.2-7-1.7-2.3-3.6-6.7-4.2-9.7-0.8-4.2-0.8-6.7 0.1-10.5 0.6-2.8 2.6-7.1 4.4-9.6 2.3-3.2 4.9-5.4 8.6-7.2 4.4-2.1 6.6-2.5 11.5-2.2zm465.1 52.9c3.1 0.2 7.1 1.4 10.3 3.2 3 1.6 6.6 4.5 8 6.4 1.4 1.9 3.2 5.5 4 8 0.9 2.6 1.3 6.6 1 9.5-0.2 2.7-1.5 7.2-2.9 10-1.5 3.1-4 6.1-6.9 8.1-3.3 2.4-6.4 3.5-11.5 4.3-4.2 0.7-8.2 0.8-10 0.3-1.6-0.5-4.4-1.6-6-2.4-1.6-0.9-4.5-3.3-6.4-5.4-1.9-2.2-4.1-5.5-4.9-7.4-0.8-1.9-1.5-6.2-1.5-9.5 0-4.4 0.6-7.3 2.4-10.9 1.3-2.7 4.2-6.5 6.4-8.3 2.2-1.9 6-4 8.5-4.8 2.5-0.8 6.7-1.3 9.5-1.1zm-513.5 56.7c3.7-0.1 7.1 0.7 10.5 2.2 2.7 1.3 6.4 3.9 8 5.8 1.7 1.9 3.9 5.4 4.9 7.9 1.2 3.2 1.7 6.3 1.4 10.5-0.3 4.7-1.1 7.1-3.7 11-1.8 2.7-4.9 6.2-6.9 7.7-2 1.5-6.3 3.3-9.4 4-4.7 1.1-6.6 1.1-10.5 0-2.7-0.7-6.8-2.6-9.3-4.2-2.8-1.8-5.5-4.7-7.2-7.7-2.3-3.9-2.7-6-2.7-11.8-0.1-4.9 0.5-8.2 1.9-11 1-2.2 2.5-4.7 3.2-5.5 0.8-0.8 2.5-2.5 3.8-3.7 1.4-1.3 4.3-3 6.5-3.8 2.2-0.8 6.5-1.4 9.5-1.4zm295.5 128.6c1.6 0.2 4.6 0.9 6.5 1.5 1.9 0.6 5.1 2.3 7 3.8 1.9 1.5 4.6 4.9 6 7.6 1.5 3 2.6 7.2 2.8 10.9 0.3 4.7-0.1 7.1-1.9 11.4-1.4 3.2-4 6.8-6.4 8.8-2.2 1.9-6.5 4.1-9.5 5-3.5 1-7 1.3-9.5 0.9-2.2-0.4-6.4-1.8-9.3-3.1q-5.2-2.5-8.2-6.8c-1.7-2.3-3.5-6.5-4.1-9.2-0.7-2.8-0.8-7-0.4-9.5 0.4-2.5 1.3-5.6 2-7 0.7-1.4 2.5-4 4.1-5.9 1.6-1.8 4.7-4.3 6.9-5.4 2.2-1.1 5.6-2.3 7.5-2.7 1.9-0.4 4.9-0.5 6.5-0.3zm-411.8 50.8c3.8 0.3 8.2 1.5 11 2.9 2.7 1.3 6.5 4.3 8.6 6.7 2.1 2.4 4.4 6.4 5.3 8.9 0.8 2.5 1.4 7 1.3 10-0.1 3-1 7.5-2.1 10-1 2.5-3.3 6-5.1 7.8-1.8 1.8-5.5 4.2-8.2 5.4-3.4 1.5-7.1 2.2-11.5 2.2-4.3 0-8-0.7-11-2-2.5-1.1-6.1-3.6-8-5.5-1.9-1.9-4.6-5.7-5.9-8.4-1.3-2.8-2.6-6.8-2.9-9-0.2-2.2 0.3-6.6 1.2-9.8 1.1-3.9 2.9-7.1 5.8-10.3 2.4-2.6 5.6-5.3 7.1-6.2 1.5-0.8 4-1.9 5.5-2.3 1.5-0.5 5.5-0.6 8.9-0.4zm476.8 15.5c5.8 0 10.8 0.6 14 1.6 2.7 1 7.2 3.1 10 4.9 2.7 1.8 7 5.4 9.5 8.1 2.4 2.7 5.7 7.8 7.3 11.4 2.3 5 3.1 8.5 3.5 15 0.3 6.3 0 10.1-1.3 14.5-0.9 3.3-3.2 8.5-5 11.5-1.8 3-5.2 7.2-7.6 9.3-2.4 2.2-7 5.2-10.2 6.8-3.1 1.6-9 3.4-13 4.1-5.6 0.9-8.7 0.9-14 0-3.7-0.7-9.5-2.6-13-4.4-3.4-1.7-8.5-5.4-11.2-8.2-2.8-2.8-6.2-7.6-7.7-10.6-1.5-3-3.1-7.5-3.7-10-0.6-2.5-1.1-7.2-1.1-10.5 0-3.3 0.6-8.3 1.3-11 0.7-2.8 2.4-6.8 3.7-9 1.4-2.2 4.3-6 6.5-8.4 2.2-2.4 5.8-5.7 8-7.5 2.2-1.7 6.5-4.1 9.5-5.3 4.2-1.7 7.6-2.3 14.5-2.3zm-310.5 7.7c2.5 0.3 6.1 1.3 8 2.3 1.9 1 5 3.3 6.9 5.1 1.9 1.9 4.2 5.2 5.2 7.4 1.1 2.4 1.9 6.3 1.9 10 0 3.7-0.7 7.5-1.9 10-1 2.2-3.6 5.7-5.7 7.7-2.2 2-5.7 4.4-7.9 5.4-2.2 0.9-6.5 1.6-9.5 1.6-3.1 0-7.5-0.8-9.9-1.9-2.8-1.1-6.3-3.9-9.3-7.3-3-3.4-5.1-6.8-5.4-9-0.4-1.9-0.5-6-0.3-9.1 0.3-4 1.3-6.9 3.5-10.5 1.9-3.1 4.8-6 7.9-7.9 2.7-1.6 6.5-3.3 8.5-3.6 1.9-0.4 5.5-0.5 8-0.2zm70 581.7c7.9 0.2 12.2 0.9 17.5 2.7 3.9 1.3 10.4 4.6 14.5 7.3 4.1 2.6 10.9 8.3 15 12.5 4.1 4.2 9.7 10.9 17.5 22.1l5-4.4c2.7-2.4 7.2-5.8 10-7.5 2.7-1.7 7.9-4.1 11.5-5.2 3.6-1 8.1-1.9 10-1.9 1.9 0 5.7 0.6 8.5 1.4 2.7 0.8 7.2 3.2 10 5.3 2.7 2.2 6.4 5.7 11 12l4.2-8.8c3.3-6.8 5.9-10.5 11-15.7 4.3-4.2 9.4-8.1 13.8-10.4 3.9-2 8.8-4.1 11-4.7 2.2-0.7 7.6-1.6 12-2.1 5.5-0.7 11.3-0.6 18.5 0.1 7.2 0.8 11.9 1.8 15 3.4 2.5 1.2 6.7 3.9 9.5 6 2.7 2.1 7.4 6 10.3 8.9 2.9 2.8 7 7.6 9 10.6 2 3 4.9 8.5 6.4 12.2 1.5 3.8 2.8 7 2.8 7.3 0 0.3-71.4 0.5-317.5 0.5l0.7-7.2c0.5-4.7 1.7-9.2 3.5-12.8 1.5-3 4.5-7.5 6.8-9.9 2.2-2.4 6.7-6.3 10-8.7 3.3-2.3 9.5-5.9 13.7-7.8 4.3-2 10.2-4 13-4.5 2.9-0.5 10-0.8 15.8-0.7z"/>
		<path id="Path 1" class="s1" d="m310.5 132.5c9.7 0.2 13.3 0.7 18.5 2.7 3.6 1.3 8.8 3.6 11.5 5.2 2.8 1.6 8.4 6.3 12.5 10.5 5.4 5.4 8.6 9.7 11.2 15.1 2.1 4.1 4.5 10.7 5.4 14.5 1.1 5 1.5 9.9 1.1 17-0.2 6.4-1.2 12.4-2.5 16.5-1.2 3.6-3.8 9.4-5.9 12.9-2.1 3.5-6.3 8.8-9.3 11.9-3 3.1-8.2 7.3-11.5 9.4-3.3 2.2-9.6 5.1-14 6.5-6.1 2-10 2.6-16.5 2.5-4.7 0-12.3-0.7-17-1.6-5.3-1.1-11.1-3.1-15.5-5.4-4.6-2.3-9.6-6.2-14.5-11.2-5-5-8.8-9.9-11.2-14.5-2-3.8-4.3-9.5-5.2-12.5-0.9-3-1.9-9.1-2.2-13.5-0.4-5.4 0-10.6 1-16 0.9-4.4 3.2-11.3 5.1-15.3 1.9-3.9 5.8-9.9 8.5-13.2 2.8-3.3 7.8-8 11.3-10.3 3.4-2.4 9.6-5.8 13.7-7.5 4.1-1.7 8.9-3.3 10.5-3.5 1.6-0.3 8.4-0.4 15-0.2zm114.9 43.7c3.5 0.5 8.8 2.2 12.6 4 3.6 1.8 8.5 5.3 11 7.8 2.5 2.5 5.8 7.3 7.4 10.6 1.6 3.2 3.3 8.6 3.8 11.9 0.5 3.3 0.6 8 0.3 10.5-0.4 2.5-1.1 6.1-1.7 8-0.6 1.9-2.8 6-4.8 9-2.1 3-5.9 7.6-8.6 10.1-2.9 2.7-7.2 5.4-10.7 6.7-3.1 1.2-8.3 2.5-11.5 2.8-3.4 0.4-7.9 0.2-11.2-0.6-3-0.7-7.8-2.3-10.5-3.6-2.8-1.3-7.3-4.5-10.1-7.1-3.1-3-6.3-7.5-8.5-11.8-3.3-6.7-3.4-7.4-3.4-18 0-10.3 0.2-11.4 3.2-17.5 2-4.2 5.1-8.4 8.7-11.8 3.1-2.8 8-6.3 10.8-7.7 2.9-1.3 7.9-2.8 11.2-3.3 3.2-0.4 8.6-0.4 12 0zm284.6 70.5c4.1 0.3 10.9 1.6 15 2.9 4.1 1.3 10.3 4.1 13.7 6.4 3.5 2.2 8.2 5.7 10.4 7.7 2.3 2.1 6.2 6.9 8.7 10.8 2.6 3.9 5.9 10.6 7.4 15 2.4 6.9 2.8 9.6 2.8 19 0 6.8-0.6 13.3-1.6 17-0.9 3.3-3 8.9-4.8 12.4-1.7 3.5-5.1 8.7-7.5 11.5-2.4 2.8-6.5 6.8-9 8.9-2.5 2.1-7.3 5.2-10.6 6.9-3.3 1.7-8.9 3.9-12.5 4.9-4.4 1.3-9.8 1.9-16.5 1.9-6.7 0-12.1-0.6-16.5-1.9-3.6-1-9.2-3.2-12.5-4.8-3.3-1.7-8.6-5.2-11.7-7.9-3.1-2.7-7.3-6.9-9.2-9.4-1.9-2.5-4.9-7.4-6.7-11-1.8-3.8-3.8-10-4.6-15-1-5.6-1.3-11.8-1-18 0.4-5.6 1.4-12 2.6-15.5 1.1-3.3 3.9-8.8 6.1-12.3 2.2-3.4 5.7-8.1 7.7-10.3 2.1-2.3 6.9-6.2 10.8-8.8 3.8-2.6 10.1-5.8 14-7.1 3.8-1.3 9.5-2.7 12.5-3.1 3-0.4 8.9-0.5 13-0.2zm-306.5 28.3c5.2 0 9.9 0.6 13.5 1.8 3 1 7.5 3.2 10 4.9 2.5 1.6 6.2 5 8.2 7.4 2 2.4 4.8 6.9 6.2 9.9 1.6 3.4 2.8 8.2 3.2 12.5 0.4 4 0.2 9.2-0.5 12.2-0.6 2.9-2.1 7.4-3.4 10-1.2 2.6-4.5 7.2-7.2 10.1-3.1 3.3-7.3 6.5-11 8.3-3.3 1.6-8.3 3.3-11 3.9-3.2 0.6-7.2 0.6-11 0-3.3-0.6-8.7-1.9-12-2.9-3.8-1.3-7.8-3.6-11-6.4-2.8-2.4-6.4-6.6-8.2-9.3-1.7-2.7-3.9-7.6-4.8-10.9-1.2-4.2-1.6-8.3-1.3-13.5 0.3-5.6 1.2-9.2 3.4-14 1.7-3.6 4.6-8.3 6.5-10.4 1.9-2.1 5.4-5.3 7.9-6.9 2.5-1.7 6.7-3.9 9.5-4.9 3.1-1.1 8-1.7 13-1.8zm250 138.3c7.6 0.2 10 0.7 15.5 3.3 3.6 1.7 8.7 5.1 11.4 7.5 3.2 2.9 6 6.9 8.5 11.9 3.3 6.7 3.6 8.3 4 17.5 0.2 7.3-0.1 11.6-1.4 16-0.9 3.3-2.9 8-4.5 10.5-1.6 2.5-5 6.5-7.7 9-2.6 2.4-7.3 5.6-10.3 7-4.9 2.2-6.7 2.5-17 2.5-10.2-0.1-12.1-0.4-17-2.6-3-1.4-7.8-4.6-10.5-7.1-2.8-2.5-6.3-6.9-7.9-9.9-1.6-3-3.5-7.7-4.3-10.4-0.7-2.8-1.3-8.1-1.3-12 0-3.9 0.7-9.7 1.5-13 0.9-3.3 2.8-8 4.3-10.5 1.4-2.5 4.5-6.4 6.9-8.8 2.4-2.3 6.2-5.2 8.5-6.4 2.4-1.2 6.1-2.7 8.3-3.5 2.5-0.8 7.5-1.2 13-1zm-496 30c7.4 0.3 10.1 0.8 15 3.1 3.3 1.5 7.8 4.2 10 6 2.2 1.8 5.5 5.5 7.3 8.2 1.8 2.7 4.1 7.6 5.2 10.9 1.6 5.1 1.7 7.3 1 14.5-0.5 4.7-1.9 11.2-3.1 14.5-1.6 4.2-4 7.7-7.9 11.6-3.1 3.2-7.9 6.8-11 8.3-3 1.4-8.2 3.1-11.5 3.8-4.4 0.8-7.6 0.9-12 0.1-3.3-0.6-8.9-2.3-12.4-3.9-4.2-1.9-8.1-4.8-11.6-8.4-2.9-3-6.5-8.2-8.1-11.5-2.1-4.6-2.8-8-3.2-14.5-0.3-7 0-9.7 1.8-15 1.2-3.6 3.4-8.3 5-10.5 1.5-2.2 4.7-5.7 7.1-7.8 2.4-2.1 6.4-4.8 8.9-5.9 2.5-1.2 5.8-2.5 7.5-2.9 1.6-0.5 7-0.7 12-0.6zm9 86.2c7.3 0.3 12 1.1 17.5 3 4.1 1.4 10 4.1 13 6 3 1.9 8 6 11.2 9.2 3.1 3.2 7.2 8.3 9.1 11.3 1.8 3 4.3 8 5.5 11 1.1 3 2.6 9.1 3.3 13.5 1 6.5 1 9.6 0 16.5-0.7 4.7-2.2 11-3.4 14-1.1 3-3.5 8-5.3 11-1.7 3-5.9 8.2-9.2 11.5-3.3 3.3-8.5 7.5-11.4 9.2-2.9 1.8-8.7 4.5-12.8 5.9-6.5 2.3-9 2.7-18.5 2.6-6.1-0.1-13.9-0.7-17.5-1.5-3.6-0.8-8.8-2.5-16.5-6.2l0.3-4.5c0.1-2.5-0.4-6.5-1.2-9-0.8-2.5-3.3-6.5-5.4-9-2.2-2.6-6-5.4-8.8-6.7-2.7-1.2-6.6-2.4-8.7-2.7-3.7-0.6-3.7-0.6-5.2-7.6-0.8-3.9-1.5-10.7-1.5-15.3 0-4.5 0.7-11 1.5-14.5 0.8-3.4 2.5-8.3 3.7-11 1.2-2.6 3.8-7.2 5.8-10.2 2-3 6.3-7.9 9.6-10.8 3.2-2.9 9.5-7.1 13.9-9.3 4.4-2.2 10.9-4.6 14.5-5.4q6.5-1.5 16.5-1zm502.5 0.6c6-0.1 12.3 0.6 17 1.7 4.1 1 10.2 3.3 13.5 5 3.3 1.8 8.4 5.3 11.4 7.9 3 2.7 7.5 7.7 10 11.3 2.5 3.6 5.9 9.9 7.5 14 2.5 6.3 3 9.3 3.4 19 0.3 8.6 0 13.2-1.2 18-0.9 3.6-3.2 9.6-5 13.5-1.9 3.9-6.1 9.9-9.3 13.5-3.3 3.6-8.8 8.3-12.4 10.5-3.5 2.3-8.2 4.8-10.4 5.8-2.2 0.9-6.7 2.4-10 3.2-3.3 0.8-9.6 1.5-14 1.5-4.4 0-10.9-0.7-14.5-1.6-3.6-0.9-9.9-3.2-14-5.1-5.7-2.8-9.4-5.5-15.6-11.7-5.7-5.7-9.2-10.2-11.7-15.1-1.9-3.9-4.2-9.5-5-12.5-0.8-3-1.8-8.4-2.1-12-0.4-4.5 0-9.4 1.4-16 1.1-5.6 3.5-12.6 5.6-17 2.8-5.6 5.8-9.5 11.8-15.5q8.1-8.1 15.1-11.7c3.8-2.1 9.7-4.4 13-5.2 3.3-0.8 10.3-1.5 15.5-1.5zm-444.8 166c3.8-0.1 10.1 0.6 14 1.5 4 0.9 10 2.9 13.3 4.4 3.3 1.6 8.2 4.6 11 6.7 2.7 2.2 5.8 4.2 6.7 4.6 1 0.4 4.2 4.4 7.2 8.9 3 4.6 6.7 11.9 8.2 16.3 2.4 6.9 2.8 9.6 2.9 19.5 0 9.3-0.4 12.9-2.3 19-1.3 4.1-4.3 10.6-6.7 14.5-2.3 3.9-7.4 9.9-11.1 13.3-4.5 4.2-9.7 7.7-14.9 10.2-4.4 2.1-10.5 4.4-13.5 5.1-3 0.7-9.6 1.3-14.5 1.2-5.1 0-11.8-0.8-15.5-1.7-3.6-1-9.7-3.4-13.5-5.4-4.8-2.5-9.5-6.1-15-11.6-5.9-5.9-9-10.1-11.8-15.6-2-4.1-4.4-10.9-5.3-15-1.1-5.3-1.4-10.3-1.1-17 0.3-6 1.3-11.9 2.7-16 1.2-3.6 3.6-9 5.4-12 1.7-3 5.9-8.5 9.4-12.3 3.5-3.7 6.7-6.7 7.3-6.7 0.5 0 3-1.3 5.6-3 2.7-1.6 7.5-3.9 10.8-5.1 3.3-1.1 7.8-2.4 10-2.9 2.2-0.4 7-0.8 10.7-0.9z"/>
		<path id="Path 2" class="s2" d="m472.5 0.1c8.5 0 12.4 0.4 17 2 3.3 1.1 8.7 3.4 12 5.2 3.3 1.8 8.9 6.1 12.5 9.7 4 4 7.9 9.2 10.2 13.5 2 3.9 4.4 9.7 5.3 13 1.1 3.8 1.7 9.5 1.7 15.5 0 7.6-0.6 11.1-2.7 17.5-1.5 4.4-4.8 11.1-7.3 14.9-2.6 3.9-7.4 9.1-10.7 11.8-3.3 2.6-8.5 6.1-11.5 7.7-3 1.7-8.4 3.7-12 4.5-3.6 0.9-10.1 1.6-14.5 1.6-4.4 0-10.7-0.7-14-1.5-3.3-0.9-8.9-3-12.5-4.7-4.6-2.2-8.9-5.5-14.5-11.2-5.6-5.6-9.1-10.1-11.2-14.6-1.8-3.6-3.9-9.4-4.7-13-0.9-3.6-1.6-9.7-1.6-13.5 0-3.9 0.7-9.9 1.6-13.5 0.8-3.6 2.9-9.4 4.7-13 1.8-3.7 5.9-9.4 9.7-13.3 3.6-3.8 8.8-8.3 11.5-10 2.8-1.8 8.4-4.4 12.5-5.9 6.4-2.3 9.1-2.7 18.5-2.7zm137 55.6c3.9 0.3 10.4 1.6 14.5 3 4.1 1.3 10.6 4.6 14.4 7.1 3.8 2.6 8.9 7 11.3 9.7 2.5 2.8 6.2 8.6 8.3 13 2.1 4.4 4.3 10.4 4.9 13.3 0.6 2.8 1.1 8.5 1.1 12.5 0 3.9-0.7 10-1.5 13.5-0.8 3.4-3.1 9.5-5.1 13.5-2.5 4.9-5.9 9.5-10.8 14.3-5.4 5.4-9.1 8.1-15.6 11.2-4.7 2.2-11.2 4.5-14.5 5.1-3.3 0.6-8.5 1.1-11.5 1.1-3 0-8.4-0.6-12-1.4-3.6-0.8-9.6-2.9-13.4-4.7-3.9-1.9-9.4-5.6-12.4-8.4-3.1-2.7-7.3-7.5-9.5-10.5-2.3-3-5.1-7.7-6.3-10.5-1.2-2.7-2.7-7.5-3.4-10.5-0.8-3.4-1.1-9.4-0.8-16 0.4-7.8 1.2-12.1 3-17 1.4-3.6 4.3-9.2 6.5-12.5 2.2-3.3 6.4-8.2 9.4-10.8 3-2.7 7.6-6.2 10.4-7.7 2.7-1.5 7.2-3.6 10-4.5 2.7-0.9 7.5-2 10.5-2.5 3-0.5 8.6-0.6 12.5-0.3zm-59.5 383.4c5.6 0 11.9 0.6 15.5 1.5 3.3 0.9 8.5 2.9 11.5 4.4 3 1.5 8 4.8 11 7.2 3 2.4 7.8 7.8 10.6 11.9 2.7 4.1 6.1 10.5 7.5 14.4 2 5.9 2.4 8.9 2.4 19 0 9.8-0.4 13.2-2.2 18.5-1.2 3.6-4 9.2-6.1 12.5-2.1 3.3-5.9 8-8.3 10.4-2.4 2.4-7.1 6.2-10.4 8.3-3.3 2.1-8.9 4.8-12.5 6-5.2 1.8-8.8 2.2-18.5 2.3-10.2 0-13.1-0.4-19-2.4-3.9-1.4-10.3-4.8-14.4-7.5-4.1-2.8-9.5-7.6-11.9-10.6-2.4-3-5.7-8-7.2-11-1.5-3-3.5-8.2-4.4-11.5-0.9-3.3-1.6-10-1.6-15 0-5 0.7-11.7 1.6-15 0.9-3.3 3.2-9.1 5.2-13 2.3-4.3 6.2-9.5 10.2-13.5 3.6-3.6 9.4-8 13-10 3.6-1.9 9.2-4.2 12.5-5.1 3.7-1.1 9.6-1.8 15.5-1.8zm-512 126.2c6.7 0.2 9.6 0.8 14 2.9 3 1.4 7.7 4.8 10.3 7.5 2.7 2.6 6.1 7.3 7.5 10.3 2.4 4.8 2.7 6.7 2.7 15.5 0 8.8-0.3 10.7-2.7 15.5-1.4 3-4.9 7.8-7.6 10.5-3.7 3.6-7.1 5.8-12.4 7.9-6.4 2.5-8.3 2.8-15.3 2.4-6-0.3-9.4-1-13.5-3-3-1.4-7.7-4.8-10.3-7.5-2.7-2.6-6.1-7.3-7.5-10.3-1.8-3.7-2.7-7.8-3-12.5-0.3-4 0.1-9.4 0.9-12.5 0.7-3 2.9-8 5-11 2-3 6.1-7.2 9-9.3 3-2 7.4-4.4 9.9-5.2 2.9-1 7.5-1.4 13-1.2z"/>
		<path id="Path 3" class="s3" d="m514.1 101.7c0.4 0.5 2.4 5.3 4.4 10.8 2 5.5 5.6 16.7 8 25 2.3 8.2 5.1 18.8 6 23.5 1 4.7 2.1 8.9 2.4 9.3 0.3 0.4 2.4-1.8 4.5-5 2.2-3.2 6.7-9.1 16.1-20.5l1.5 2.3c0.8 1.3 3.6 4.6 10.9 12.4l-1.8 4c-1.6 3.6-2.3 4.2-7.9 5.7-4.5 1.3-7.5 3-10.8 6-2.6 2.5-5.2 6.2-6.2 8.8-0.9 2.5-1.6 7-1.6 10 0.1 3.5 0.9 7 2.2 9.5 1.1 2.2 3 5.1 6.6 9l-3.7 15c-2 8.2-4.8 23.8-6.2 34.5-1.4 10.7-3.7 25.8-5.1 33.5-1.4 7.7-4.1 20.3-6.1 28-1.9 7.7-5.1 18.3-7 23.5-2 5.2-5.1 12.5-6.9 16.2-1.9 3.8-3.2 7.1-2.9 7.5 0.2 0.5 3.5-2.1 7.2-5.7 3.8-3.6 9.7-8.9 13.3-11.9 3.6-3 10.5-8.5 15.5-12.1 5-3.7 12.8-9.1 17.5-12 4.7-2.9 13.7-7.9 20-11 6.3-3.2 15.9-7.4 21.2-9.4 5.4-2 14.4-4.7 20-6.1 5.7-1.4 12.1-2.7 18.3-3.7v9.4c0 5.1 0.3 11.2 1.5 17.8l-10.8 3.6c-5.9 1.9-16.6 6.4-23.7 9.9-7.2 3.5-18.4 9.9-25 14.3-6.6 4.4-16.3 11.6-21.5 15.9-5.2 4.4-13.9 12.7-19.4 18.4-5.4 5.7-13.8 15.6-18.5 21.9-4.8 6.3-11.3 15.8-14.5 21-3.3 5.2-8.3 14-11.2 19.5-2.9 5.5-7.4 14.7-9.9 20.5-2.6 5.8-7.2 17.9-16 43.5l-0.3 24.5c-0.2 13.5 0.1 39.1 0.8 57 0.6 17.9 1.3 32.7 1.5 33 0.2 0.3 5.2-3.8 11-9 5.9-5.2 11.2-9.8 11.8-10.2 0.7-0.4 3 0.2 5.2 1.2 2.2 1.1 5.8 2.3 8 2.6 2.4 0.4 6.2 0 9.5-0.9 3.1-0.9 7.3-3.1 9.5-5 2.4-2 5-5.6 6.4-8.8 1.8-4.2 2.2-6.7 1.9-11.4-0.2-3.5-1.2-7.6-4.6-14l6.3-17.6 19-0.2 0.2 7.1c0.2 4 0.4 7.2 0.5 7.2 0.2 0 6.8-3.1 14.8-6.8 8-3.8 19.7-9.1 26-11.8 6.3-2.6 13-6.2 14.8-7.8 1.8-1.7 5.6-6.5 8.5-10.6 2.8-4.1 6.8-11.1 8.8-15.5 2.1-4.4 4.4-10.6 6.9-19.5l8.7 0.6c4.9 0.4 8.9 0.7 9 0.8 0.1 0 0.5 4.3 1 9.4 0.4 5 1 9.2 1.3 9.2 0.3 0 5.5-3.9 11.5-8.7 6-4.7 16.2-13.8 22.6-20.2 6.3-6.4 14.1-15 17.2-19.1 3.1-4.1 7.9-11.3 10.7-16 2.8-4.7 6.5-12.5 8.3-17.3 2.7-7.5 3.5-8.8 5.4-8.7 1.3 0 3.1-0.3 4-0.8 1.5-0.6 1.6 0.1 0.9 8.3-0.4 4.9-1.4 12.1-2.2 16-0.8 3.9-2.6 10.6-4 15-1.5 4.4-5.3 13.2-8.5 19.5-3.3 6.3-8.9 15.5-12.7 20.5-3.7 4.9-10.5 12.9-23.7 26.6l-6-1.5c-3.4-0.9-10-1.6-15-1.6-5 0-11.9 0.7-15.5 1.6-3.6 0.8-9.7 3.2-13.5 5.2-4.7 2.4-9.7 6.3-15.1 11.7-5.7 5.6-9.1 10.1-11.6 15-1.9 3.9-4.2 10.4-6.8 22l-12.2 7.2c-6.8 3.9-17.3 10.4-23.3 14.3-6 4-14.5 9.8-26.5 18.5l5.2 3.4c2.9 1.8 6.2 4.2 7.3 5.3 2 1.9 2 1.9-4.6 8.6-3.7 3.7-7.1 7.6-7.7 8.7-0.9 1.9-1.3 1.9-6.9 0.7-3.2-0.6-9.4-1.5-21.8-2.5l-7.9 8.9c-4.3 4.9-10.1 12.3-12.9 16.4-2.8 4.1-6.9 11.1-9.1 15.5-2.5 5.1-4.1 9.8-4.4 13-0.2 2.7 0.8 17.6 2.2 33 1.5 15.4 4.7 46.2 7.1 68.5 2.5 22.3 6.8 58.3 9.5 80 2.8 21.7 7.1 54.1 9.6 72 2.4 17.9 6.7 47.8 9.5 66.5 2.8 18.7 7.7 51.1 11 72 3.3 20.9 9.3 58 13.4 82.5 4.1 24.5 7.3 44.6 7.2 44.7-0.1 0.2-4.2-0.1-9.2-0.7-5-0.5-11.9-0.7-15.5-0.4-3.6 0.3-9.2 1.3-12.5 2.1-3.3 0.8-9.2 3.1-13 5.1-4.4 2.3-9.5 6.2-13.8 10.4-5.1 5.2-7.7 8.9-15.2 24.5l-3-4c-1.7-2.3-5.3-5.8-8-8-2.8-2.1-7.3-4.5-10-5.3-2.8-0.8-6.6-1.4-8.5-1.4-1.9 0-6.4 0.9-10 1.9-3.6 1.1-8.8 3.5-11.5 5.2-2.8 1.7-7.3 5.1-15 11.9l-5-7.2c-2.8-4-8.4-10.7-12.5-14.9-4.1-4.2-10.9-9.9-15-12.6-4.1-2.6-10.9-6-15-7.3-6.3-2.1-9.4-2.5-19.8-2.5-7.7 0-12.1-0.4-11.8-1 0.2-0.5 2.6-8.9 5.4-18.5 2.8-9.6 7.7-28.3 11-41.5 3.3-13.2 8.5-35.5 11.6-49.5 3-14 7.5-36.1 10-49 2.5-12.9 6.8-37 9.5-53.5 2.8-16.5 6.8-42.4 9-57.5 2.2-15.1 5.8-41.9 8-59.5 2.2-17.6 5.4-44.6 7.1-60 1.6-15.4 3.7-35.1 6-59.5l-3.4-4.8c-1.8-2.6-6.2-7.4-9.7-10.7-3.5-3.3-9.3-7.9-12.9-10.3-3.6-2.4-11-6.5-16.5-9.2-5.5-2.6-14.7-6.4-20.5-8.4-5.8-1.9-16.1-4.9-23-6.5-6.9-1.7-17.8-4-24.3-5.1-7.1-1.2-13.4-1.8-16-1.4-2.3 0.4-4.7 1.1-5.2 1.5-0.6 0.6-1.6 0.3-2.5-0.6-0.8-0.9-1.8-1.6-2.3-1.5-0.4 0-3.1-1.8-6-4.1-2.8-2.2-7.9-5.4-11.2-6.9-3.3-1.5-9.6-3.6-14-4.5-5.8-1.3-10.3-1.6-16.5-1.2-4.8 0.3-11.5 1.6-15.5 2.9-3.9 1.3-9.5 3.9-12.5 5.7-5.2 3.1-5.8 3.3-12 2.7-3.6-0.4-12.1-1.6-19-2.7-6.9-1.1-17.5-3.3-23.5-4.9-6.1-1.6-14.8-4.3-19.5-6-4.7-1.7-12.1-4.9-16.5-7-4.4-2.1-13-7.1-19-11.1-6.1-4.1-14.6-11-19.1-15.4-4.4-4.4-10.4-11.1-13.3-15-2.8-3.9-5.1-7.3-5.1-7.8 0-0.4 2-1.6 4.5-2.7 2.5-1.1 5.1-1.7 5.7-1.3 0.7 0.4 3.3 2.3 5.8 4.3 2.5 1.9 7.1 5 10.2 6.8 4.6 2.6 6.3 4.1 8 7.9 1.3 2.6 3.9 6.3 5.8 8.2 1.9 1.9 5.5 4.4 8 5.5 3 1.3 6.6 2 11 1.9 3.8 0 8.2-0.7 10.5-1.7 3.9-1.6 4.4-1.6 14 0.8 5.5 1.4 12.8 3.1 16.2 3.8 3.4 0.7 6.5 1.1 6.7 0.8 0.3-0.3-1-4.3-2.9-9-1.9-4.7-3.5-9.1-3.5-9.8 0-0.7 0.7-1 1.7-0.6 1 0.3 5.2 0.9 9.3 1.4 4.1 0.5 8.6 0.6 10 0.3 1.9-0.4 3.4 0.3 6 2.7 1.9 1.8 7.3 5.7 12 8.8 4.7 3.1 11.4 6.8 15 8.3 6.2 2.6 6.9 2.6 17 1.8 5.8-0.4 14.9-0.8 30-0.9l3.7 4.2c2.1 2.2 5.8 5 8.3 6.1 2.7 1.2 6.7 1.9 10 1.9 3 0 7.3-0.7 9.5-1.6 2.2-0.9 5.9-3.6 12.6-10.1l15.2 1.7c8.4 1 20.6 2.9 27.2 4.2 6.6 1.3 16 3.6 21 5 4.9 1.4 12.4 3.9 16.5 5.5 4.1 1.5 10.9 4.5 15 6.6 4.1 2.1 10.2 5.6 13.5 7.8 3.3 2.2 7 4.9 8.3 6.1 2.2 2.1 2.3 2.1 2.2 0.1 0-1.1 0.5-7.2 1-13.5 0.5-6.3 1.9-25 3-41.5 1.1-16.5 2.7-43.7 5.1-91l-4.3-4.3c-2.4-2.4-8.8-8-14.3-12.5-5.5-4.4-15.4-11.6-22-15.9-6.6-4.4-17.9-10.8-25-14.3-7.2-3.5-18.9-8.4-26-10.8-7.2-2.4-17.1-5.4-22-6.5-5-1.2-13.5-2.8-19-3.7-5.5-0.9-17.7-1.8-27-2.2-10.6-0.4-22.1-0.1-30.5 0.6-7.4 0.7-18.2 2.1-24 3.2-5.8 1-11 1.9-11.5 1.9-0.6 0-0.3-2.3 0.7-5.3 1-2.8 1.7-7.5 1.8-10.2 0-5 0-5 4.2-6.6 4.2-1.5 4.4-1.5 7.8 0.7 1.9 1.3 5.6 2.9 8.3 3.6 3.9 1.1 5.8 1.1 10.5 0 3.1-0.7 7.3-2.5 9.4-4 2-1.5 4.7-4.3 5.9-6.2 1.3-1.9 2.8-3.8 3.4-4.2 0.5-0.4 7.6-0.8 15.7-0.8 8.2 0 20.1 0.7 26.5 1.5 6.5 0.9 17 2.7 23.3 4.1 6.3 1.4 18 4.7 26 7.4 8 2.6 20.3 7.3 27.5 10.4 7.1 3.1 13.1 5.4 13.2 5.1 0.2-0.3-2.4-3.3-5.8-6.8-3.3-3.4-9.3-10.5-13.2-15.7-4-5.2-10.9-15.6-15.5-23-4.6-7.4-14.5-25.9-22.1-41-7.5-15.1-17-32.7-21-39-6.7-10.7-7.1-11.7-6.1-14.5 0.6-1.6 1-5.3 1-8 0-3.1-0.9-6.9-2.3-10-1.3-2.8-3.9-6.3-5.8-7.9-1.9-1.6-5-3.6-6.9-4.4-1.9-0.8-6-1.6-9-1.7-5.1-0.3-5.8-0.6-12.8-9l3.5-4.5c1.9-2.5 4.2-5.9 5-7.5 0.9-1.6 1.7-3.1 1.9-3.3 0.2-0.1 1.6 0.4 3.1 1.2 1.6 0.8 6.5 4.1 11 7.5 4.6 3.3 8.5 6 8.9 5.8 0.3-0.1 0-4.9-0.6-10.7-0.6-5.8-1.4-19.5-2.5-50.3l3.5 0.6c1.9 0.4 6.5 1 16.9 2.2l0.3 5c0.3 4.7 0.1 5.2-3.6 8.5-2.2 1.9-4.7 5.3-5.7 7.5-1.2 2.5-1.9 6.4-1.9 10.2 0 3.5 0.6 7.8 1.3 9.5 0.8 1.8 2.9 5.1 4.8 7.2 1.9 2.2 5.3 4.8 7.6 5.8 4.3 1.8 4.3 1.9 5.9 9.5 0.9 4.3 3.6 13.9 6 21.3 2.3 7.4 6.4 18.4 8.9 24.5 2.5 6.1 7.3 16.2 10.6 22.5 3.4 6.3 8.6 15.3 11.6 20 3 4.7 8.3 12.2 11.7 16.7 3.3 4.6 6.3 8.3 6.6 8.3 0.3 0 0.5-7.8 0.5-17.3 0-11.8 0.6-20.6 1.9-28.2 1-6.1 3.3-16.4 5.2-23 1.9-6.6 3.8-12.3 4.2-12.7 0.4-0.4 3.5 0.2 6.9 1.2 3.5 1.1 7.5 2 11.8 2l0.1 19.3c0 12.7 0.6 23.1 1.8 30.7 0.9 6.3 2.8 16.2 4.2 22 1.3 5.8 4.1 15.4 6.1 21.5 2 6.1 5.6 15.7 8.1 21.5 2.4 5.8 5.7 13.1 7.3 16.2 1.6 3.2 3.2 5.8 3.6 5.8 0.5 0.1 3-4.6 5.7-10.2 2.6-5.7 6.2-13.7 7.8-17.8 1.7-4.1 4.6-12 6.5-17.5 1.8-5.5 4.7-15.2 6.3-21.5 1.6-6.3 3.9-17.4 5.2-24.5 1.9-11.2 2.2-16.7 2.3-40 0-21.5-0.4-29.3-1.8-38.5-1.1-6.3-3.6-18.3-5.7-26.5-2-8.3-6-20.9-8.7-28-2.8-7.1-5.7-14.5-6.4-16.2-1.4-3.2-1.3-3.4 2.2-7 2-2.1 4.6-5.4 5.9-7.3 1.3-1.9 2.5-3.7 2.7-4 0.1-0.3 1.2 0.3 2.3 1.2 1.9 1.7 1.9 2 0.4 5.5-1.1 2.6-1.5 5.9-1.3 10.4 0.3 5.1 1 7.6 3.4 11.4 1.7 2.8 4.9 6.1 7.5 7.8 2.5 1.5 6.7 3.1 14.1 4.2l3.8 10c2.1 5.5 4.7 13.2 5.7 17.2 1.1 4 2.2 6.9 2.6 6.5 0.3-0.4 2.4-6.1 4.6-12.7 2.2-6.6 5.1-17.2 6.5-23.5 1.4-6.3 3.4-16.7 4.4-23 1.4-9.1 1.8-17.4 1.8-39.5 0-16.1-0.5-31.2-2.4-43l4.1-3.5c2.2-1.9 5-5.3 6.1-7.5 1-2.2 2.2-6.3 2.5-9 0.4-3.5 0-6.5-1.3-10-1.1-2.8-3.5-6.8-5.4-8.9-2-2.2-5.4-4.7-7.6-5.7-2.2-1-5-1.9-6.3-1.9-1.8 0-2.4-0.8-3.2-4.3-0.6-2.3-0.9-4.2-0.8-4.3 0.2 0 1.9-1 3.8-2.1 1.9-1.2 5.3-3.5 7.5-5.2 2.1-1.8 4.2-2.8 4.6-2.4z"/>
	</g>
</svg>