<?xml version="1.0" ?><!DOCTYPE svg  PUBLIC '-//W3C//DTD SVG 1.1//EN'  'http://www.w3.org/Graphics/SVG/1.1/DTD/svg11.dtd'><svg enable-background="new 0 0 512 512" id="Layer_1" version="1.1" viewBox="0 0 512 512" xml:space="preserve" xmlns="http://www.w3.org/2000/svg" xmlns:xlink="http://www.w3.org/1999/xlink"><g><path d="M258.8,507.2C120.4,507.8,6.6,392.6,9.9,251.9C13,117.9,124,7.2,262,8.7C398.7,10.2,511.8,124,508.1,264.9   C504.6,398.3,394.5,507.9,258.8,507.2z M40.2,258.3C41.3,383.6,142.9,480.1,262.9,478c116.2-2.1,214.7-96.8,214.7-220   c0-125.3-102.4-222.2-222.8-219.9C138.6,40.2,41,135.2,40.2,258.3z"/><path d="M206.8,433.4c0-58.9,0-117.3,0-176.3c-13,0-25.6,0-38.5,0c0-20,0-39.4,0-59.4c1.7-0.1,3.4-0.3,5.2-0.3   c9.3,0,18.7-0.2,28,0.1c4.1,0.1,5.5-1,5.4-5.2c-0.2-15.2-0.2-30.3-0.1-45.5c0.1-17.1,4.9-32.6,17.1-45c11.8-12,26.9-18.5,43.3-19.5   c26.4-1.5,52.9-1.3,79.4-1.8c0.3,0,0.6,0.3,1.2,0.6c0,20.1,0,40.3,0,61c-1.9,0.1-3.7,0.2-5.4,0.2c-12,0-24,0-36,0   c-12.1,0.1-19.2,7.3-19.2,19.2c0,11.3,0,22.7,0.1,34c0,0.3,0.2,0.6,0.5,1.7c19.8,0,39.8,0,60.8,0c-2.6,20.3-5,39.7-7.6,59.8   c-18.1,0-35.8,0-54,0c0,59.2,0,117.8,0,176.6C260.1,433.4,233.9,433.4,206.8,433.4z"/></g></svg>