<?xml version="1.0" ?><!DOCTYPE svg  PUBLIC '-//W3C//DTD SVG 1.1//EN'  'http://www.w3.org/Graphics/SVG/1.1/DTD/svg11.dtd'><svg enable-background="new 0 0 512 512" id="Layer_1" version="1.1" viewBox="0 0 512 512" xml:space="preserve" xmlns="http://www.w3.org/2000/svg" xmlns:xlink="http://www.w3.org/1999/xlink"><g><path d="M258.9,507.2C120.4,507.8,6.6,392.6,9.9,252C12.9,118,124,7,262.4,8.7c136.5,1.7,249.4,115.4,245.7,256.1   C504.7,398.2,394.6,507.8,258.9,507.2z M477.8,258c-1-125.2-102.2-221.4-221.5-220C139.7,39.4,40.2,134.4,40.4,258.3   C40.6,383.5,142.6,479.6,261.9,478C378.3,476.5,476.8,381.7,477.8,258z"/><path d="M241.7,321.6c-2.5,10.8-5.4,21.5-7.6,32.3c-5.3,26.7-14.9,51.6-30.1,74.2c-2.6,3.8-5.2,7.7-8,11.4c-0.7,0.9-2.6,2.2-3,1.9   c-1.1-0.7-2.3-2.2-2.3-3.4c-0.9-16.8-2.4-33.5-2.2-50.3c0.3-22.3,7.3-43.5,11.9-65.1c2.9-13.6,5.8-27.3,8.7-40.9   c1.6-7.6,3.7-15.2,4.9-22.9c0.6-3.6,0.6-7.7-0.5-11.1c-6-18.8-6.1-37.3,1.8-55.5c3.9-9.1,9.8-16.8,19.4-20.9   c16.9-7.2,33.6,2.8,35.5,21.3c1.4,13.1-1.8,25.4-5.2,37.8c-3.9,14.6-8.6,29.1-11.1,43.9c-3.8,22.6,15.3,39.3,37.6,34.3   c15.4-3.4,25-13.9,32.6-26.5c9.8-16.5,15.2-34.6,16.8-53.6c0.9-10.9,1.8-21.9,1.5-32.9c-0.5-16.5-5.6-31.7-16.2-44.6   c-10.5-12.7-24.2-20.4-40.2-23.6c-19.5-3.9-38.6-2.7-57.2,5.1c-17.5,7.3-30.9,19.1-40.6,35.1c-12.7,20.9-17.4,43.6-13.9,67.9   c1.3,9.1,4.6,17.7,10.6,24.9c3.5,4.3,4.9,8.7,2.8,14.2c-1.5,4-1.9,8.4-2.9,12.6c-1.6,7.1-5.4,8.6-11.9,5.4   c-19.2-9.6-27.8-26.7-32.9-46.2c-4.2-16.4-4.4-33.1-1.6-49.6c3.6-21.2,12.4-40.5,25.8-57.5c15.4-19.5,34.9-33.2,58.3-41.1   c23.1-7.9,47-9.9,70.9-5.6c30.5,5.5,55.5,20.9,73.7,46.4c17.7,24.9,24.1,52.8,21.3,83c-1.5,15.7-4,31.3-9.2,46.3   c-8.7,25.3-21.9,47.5-45,62.2c-7.7,4.9-16.5,8.4-25.3,11c-7,2.1-14.7,2.6-22.1,2.6c-17.5-0.2-32-7.2-42.6-21.4   c-0.4-0.5-0.5-1.3-0.7-1.9C242.8,321.1,242.2,321.3,241.7,321.6z"/></g></svg>