<svg width="45" height="36" viewBox="0 0 45 36" fill="none" xmlns="http://www.w3.org/2000/svg">
<path d="M45 4.26564C43.312 4.99909 41.526 5.48231 39.6984 5.70001C41.6191 4.57537 43.0634 2.78867 43.7606 0.675015C41.9448 1.73682 39.9615 2.48183 37.8956 2.87814C37.0257 1.96645 35.9795 1.24118 34.8206 0.746401C33.6616 0.251627 32.4142 -0.00231312 31.1541 1.5876e-05C26.0522 1.5876e-05 21.9234 4.06876 21.9234 9.08439C21.9198 9.78204 21.9998 10.4776 22.1616 11.1563C18.5031 10.9848 14.9208 10.0515 11.6437 8.41619C8.36666 6.78088 5.46702 4.47954 3.13031 1.65939C2.31054 3.04138 1.877 4.61818 1.875 6.22501C1.875 9.37501 3.51844 12.1594 6 13.7906C4.52974 13.7557 3.08962 13.3666 1.80188 12.6563V12.7688C1.80188 17.175 4.98938 20.8406 9.20813 21.675C8.4148 21.8865 7.59728 21.9936 6.77625 21.9938C6.19367 21.9948 5.61241 21.9382 5.04094 21.825C6.21375 25.4344 9.62719 28.0594 13.6706 28.1344C10.385 30.6665 6.3512 32.0351 2.20312 32.025C1.46683 32.0239 0.731218 31.9801 0 31.8938C4.21986 34.5883 9.1251 36.0136 14.1319 36C31.1344 36 40.4231 22.1531 40.4231 10.1438C40.4231 9.75001 40.4128 9.35626 40.3941 8.97189C42.197 7.68944 43.7567 6.09574 45 4.26564Z" fill="#E40037"/>
</svg>
